<svg version="1.1" viewBox="0.0 0.0 960.0 540.0" fill="none" stroke="none" stroke-linecap="square" stroke-miterlimit="10" xmlns:xlink="http://www.w3.org/1999/xlink" xmlns="http://www.w3.org/2000/svg"><clipPath id="gdecf04989e_0_38.0"><path d="m0 0l960.0 0l0 540.0l-960.0 0l0 -540.0z" clip-rule="nonzero"/></clipPath><g clip-path="url(#gdecf04989e_0_38.0)"><path fill="#ffffff" d="m0 0l960.0 0l0 540.0l-960.0 0z" fill-rule="evenodd"/><path fill="#000000" fill-opacity="0.0" d="m16.45407 136.8802l0 0c0 -25.970955 21.053614 -47.024567 47.02456 -47.024567l823.2737 0c12.471741 0 24.432617 4.954361 33.251404 13.77317c8.818848 8.818817 13.773193 20.779701 13.773193 33.251396l0 188.0926c0 25.970947 -21.05365 47.024567 -47.024597 47.024567l-823.2737 0c-25.970947 0 -47.02456 -21.05362 -47.02456 -47.024567z" fill-rule="evenodd"/><path stroke="#0097a7" stroke-width="1.0" stroke-linejoin="round" stroke-linecap="butt" d="m16.45407 136.8802l0 0c0 -25.970955 21.053614 -47.024567 47.02456 -47.024567l823.2737 0c12.471741 0 24.432617 4.954361 33.251404 13.77317c8.818848 8.818817 13.773193 20.779701 13.773193 33.251396l0 188.0926c0 25.970947 -21.05365 47.024567 -47.024597 47.024567l-823.2737 0c-25.970947 0 -47.02456 -21.05362 -47.02456 -47.024567z" fill-rule="evenodd"/><path fill="#76a5af" d="m297.48032 20.863712l0 0c0 -5.386696 4.366791 -9.753476 9.753479 -9.753476l295.29617 0c2.586792 0 5.067627 1.0275955 6.8967896 2.8567266c1.8291016 1.8291321 2.8566895 4.309967 2.8566895 6.8967495l0 39.012733c0 5.386692 -4.3667603 9.753475 -9.753479 9.753475l-295.29617 0l0 0c-5.386688 0 -9.753479 -4.366783 -9.753479 -9.753475z" fill-rule="evenodd"/><path stroke="#595959" stroke-width="1.0" stroke-linejoin="round" stroke-linecap="butt" d="m297.48032 20.863712l0 0c0 -5.386696 4.366791 -9.753476 9.753479 -9.753476l295.29617 0c2.586792 0 5.067627 1.0275955 6.8967896 2.8567266c1.8291016 1.8291321 2.8566895 4.309967 2.8566895 6.8967495l0 39.012733c0 5.386692 -4.3667603 9.753475 -9.753479 9.753475l-295.29617 0l0 0c-5.386688 0 -9.753479 -4.366783 -9.753479 -9.753475z" fill-rule="evenodd"/><path fill="#000000" fill-opacity="0.0" d="m405.18372 13.629921l104.0 0l0 51.716537l-104.0 0z" fill-rule="evenodd"/><path fill="#000000" d="m416.2306 48.22992l0 -18.921875l3.84375 0l0 15.703125l9.578125 0l0 3.21875l-13.421875 0zm16.14209 -15.703125l0 -3.375l3.671875 0l0 3.375l-3.671875 0zm0 15.703125l0 -13.828125l3.671875 0l0 13.828125l-3.671875 0zm19.98407 0l-3.65625 0l0 -7.046875q0 -2.25 -0.234375 -2.90625q-0.234375 -0.65625 -0.765625 -1.015625q-0.515625 -0.375 -1.265625 -0.375q-0.953125 0 -1.703125 0.53125q-0.75 0.515625 -1.03125 1.375q-0.28125 0.859375 -0.28125 3.171875l0 6.265625l-3.65625 0l0 -13.828125l3.390625 0l0 2.03125q1.8125 -2.34375 4.5625 -2.34375q1.203125 0 2.203125 0.4375q1.015625 0.4375 1.515625 1.125q0.515625 0.671875 0.71875 1.53125q0.203125 0.859375 0.203125 2.453125l0 8.59375zm3.5795898 0l0 -19.078125l3.65625 0l0 10.125l4.28125 -4.875l4.5 0l-4.71875 5.0625l5.0625 8.765625l-3.9375 0l-3.484375 -6.203125l-1.703125 1.78125l0 4.421875l-3.65625 0zm13.668671 -3.9375l3.671875 -0.5625q0.234375 1.0625 0.953125 1.625q0.71875 0.546875 2.0 0.546875q1.421875 0 2.140625 -0.515625q0.46875 -0.375 0.46875 -0.984375q0 -0.421875 -0.25 -0.6875q-0.28125 -0.265625 -1.234375 -0.484375q-4.421875 -0.96875 -5.609375 -1.78125q-1.640625 -1.125 -1.640625 -3.109375q0 -1.796875 1.421875 -3.015625q1.421875 -1.234375 4.40625 -1.234375q2.828125 0 4.203125 0.9375q1.390625 0.921875 1.90625 2.71875l-3.4375 0.640625q-0.234375 -0.796875 -0.859375 -1.21875q-0.609375 -0.4375 -1.75 -0.4375q-1.4375 0 -2.0625 0.390625q-0.421875 0.296875 -0.421875 0.75q0 0.390625 0.359375 0.65625q0.5 0.375 3.421875 1.046875q2.921875 0.65625 4.078125 1.609375q1.140625 0.984375 1.140625 2.71875q0 1.90625 -1.59375 3.28125q-1.578125 1.359375 -4.6875 1.359375q-2.828125 0 -4.484375 -1.140625q-1.640625 -1.15625 -2.140625 -3.109375z" fill-rule="nonzero"/><path fill="#000000" fill-opacity="0.0" d="m46.37008 205.08723l0 0c0 -17.128418 13.885326 -31.013748 31.01374 -31.013748l339.45282 0c8.225372 0 16.11383 3.267517 21.930054 9.083725c5.8161926 5.8161926 9.08371 13.704666 9.08371 21.930023l0 124.051254c0 17.128418 -13.885345 31.013733 -31.013763 31.013733l-339.45282 0c-17.128414 0 -31.01374 -13.885315 -31.01374 -31.013733z" fill-rule="evenodd"/><path stroke="#b4a7d6" stroke-width="1.0" stroke-linejoin="round" stroke-linecap="butt" d="m46.37008 205.08723l0 0c0 -17.128418 13.885326 -31.013748 31.01374 -31.013748l339.45282 0c8.225372 0 16.11383 3.267517 21.930054 9.083725c5.8161926 5.8161926 9.08371 13.704666 9.08371 21.930023l0 124.051254c0 17.128418 -13.885345 31.013733 -31.013763 31.013733l-339.45282 0c-17.128414 0 -31.01374 -13.885315 -31.01374 -31.013733z" fill-rule="evenodd"/><path fill="#000000" fill-opacity="0.0" d="m503.11023 205.08723l0 0c0 -17.128418 13.885315 -31.013748 31.013733 -31.013748l339.45282 0c8.225403 0 16.11383 3.267517 21.930054 9.083725c5.816223 5.8161926 9.08374 13.704666 9.08374 21.930023l0 124.051254c0 17.128418 -13.885376 31.013733 -31.013794 31.013733l-339.45282 0c-17.128418 0 -31.013733 -13.885315 -31.013733 -31.013733z" fill-rule="evenodd"/><path stroke="#b4a7d6" stroke-width="1.0" stroke-linejoin="round" stroke-linecap="butt" d="m503.11023 205.08723l0 0c0 -17.128418 13.885315 -31.013748 31.013733 -31.013748l339.45282 0c8.225403 0 16.11383 3.267517 21.930054 9.083725c5.816223 5.8161926 9.08374 13.704666 9.08374 21.930023l0 124.051254c0 17.128418 -13.885376 31.013733 -31.013794 31.013733l-339.45282 0c-17.128418 0 -31.013733 -13.885315 -31.013733 -31.013733z" fill-rule="evenodd"/><path fill="#b4a7d6" d="m102.96326 118.17337l0 0c0 -3.8182373 3.0952911 -6.9135284 6.913521 -6.9135284l260.9761 0c1.8335876 0 3.5920715 0.7283859 4.888611 2.0249252c1.2965393 1.2965393 2.0249329 3.0550156 2.0249329 4.888603l0 27.65326c0 3.8182373 -3.0953064 6.9135284 -6.9135437 6.9135284l-260.9761 0c-3.8182297 0 -6.913521 -3.0952911 -6.913521 -6.9135284z" fill-rule="evenodd"/><path stroke="#595959" stroke-width="1.0" stroke-linejoin="round" stroke-linecap="butt" d="m102.96326 118.17337l0 0c0 -3.8182373 3.0952911 -6.9135284 6.913521 -6.9135284l260.9761 0c1.8335876 0 3.5920715 0.7283859 4.888611 2.0249252c1.2965393 1.2965393 2.0249329 3.0550156 2.0249329 4.888603l0 27.65326c0 3.8182373 -3.0953064 6.9135284 -6.9135437 6.9135284l-260.9761 0c-3.8182297 0 -6.913521 -3.0952911 -6.913521 -6.9135284z" fill-rule="evenodd"/><path fill="#000000" fill-opacity="0.0" d="m168.59317 107.85302l153.63779 0l0 48.472435l-153.63779 0z" fill-rule="evenodd"/><path fill="#000000" d="m179.28067 134.33052l2.25 -0.203125l-0.015625 0.59375q0 1.0 0.453125 1.828125q0.453125 0.828125 1.5 1.28125q1.0625 0.4375 2.515625 0.4375q2.0625 0 3.140625 -0.890625q1.09375 -0.90625 1.09375 -2.0625q0 -0.8125 -0.578125 -1.484375q-0.578125 -0.65625 -3.203125 -1.78125q-2.015625 -0.875 -2.765625 -1.34375q-1.15625 -0.765625 -1.703125 -1.65625q-0.546875 -0.90625 -0.546875 -2.046875q0 -1.328125 0.71875 -2.390625q0.734375 -1.0625 2.125 -1.625q1.40625 -0.5625 3.15625 -0.5625q2.109375 0 3.546875 0.703125q1.4375 0.703125 2.078125 1.875q0.65625 1.171875 0.65625 2.234375q0 0.109375 0 0.34375l-2.21875 0.1875q0 -0.734375 -0.125 -1.140625q-0.234375 -0.71875 -0.734375 -1.203125q-0.484375 -0.5 -1.359375 -0.796875q-0.859375 -0.296875 -1.921875 -0.296875q-1.875 0 -2.921875 0.84375q-0.796875 0.640625 -0.796875 1.703125q0 0.640625 0.328125 1.140625q0.328125 0.5 1.1875 0.96875q0.609375 0.34375 2.890625 1.359375q1.859375 0.8125 2.5625 1.28125q0.9375 0.625 1.4375 1.515625q0.5 0.875 0.5 2.0q0 1.390625 -0.84375 2.578125q-0.84375 1.171875 -2.34375 1.828125q-1.5 0.640625 -3.4375 0.640625q-2.921875 0 -4.765625 -1.265625q-1.84375 -1.28125 -1.859375 -4.59375zm20.070312 3.84375l-0.34375 1.734375q-0.765625 0.203125 -1.484375 0.203125q-1.265625 0 -2.015625 -0.625q-0.5625 -0.46875 -0.5625 -1.28125q0 -0.40625 0.3125 -1.890625l1.515625 -7.234375l-1.6875 0l0.34375 -1.640625l1.671875 0l0.65625 -3.046875l2.421875 -1.46875l-0.953125 4.515625l2.09375 0l-0.359375 1.640625l-2.078125 0l-1.4375 6.890625q-0.265625 1.3125 -0.265625 1.5625q0 0.375 0.21875 0.578125q0.21875 0.203125 0.703125 0.203125q0.703125 0 1.25 -0.140625zm10.105469 0.171875q-1.09375 0.953125 -2.125 1.390625q-1.015625 0.4375 -2.171875 0.4375q-1.71875 0 -2.78125 -1.015625q-1.046875 -1.015625 -1.046875 -2.59375q0 -1.046875 0.46875 -1.84375q0.46875 -0.8125 1.25 -1.296875q0.796875 -0.484375 1.9375 -0.6875q0.703125 -0.140625 2.703125 -0.21875q2.0 -0.09375 2.875 -0.4375q0.234375 -0.859375 0.234375 -1.4375q0 -0.734375 -0.53125 -1.15625q-0.734375 -0.59375 -2.15625 -0.59375q-1.34375 0 -2.1875 0.59375q-0.84375 0.59375 -1.234375 1.6875l-2.140625 -0.1875q0.65625 -1.859375 2.078125 -2.84375q1.421875 -0.984375 3.59375 -0.984375q2.296875 0 3.65625 1.109375q1.03125 0.8125 1.03125 2.125q0 1.0 -0.296875 2.3125l-0.6875 3.09375q-0.328125 1.484375 -0.328125 2.40625q0 0.578125 0.25 1.6875l-2.140625 0q-0.171875 -0.609375 -0.25 -1.546875zm0.78125 -4.765625q-0.4375 0.1875 -0.953125 0.28125q-0.5 0.09375 -1.703125 0.1875q-1.84375 0.171875 -2.609375 0.421875q-0.765625 0.25 -1.15625 0.8125q-0.375 0.546875 -0.375 1.203125q0 0.890625 0.609375 1.46875q0.609375 0.578125 1.75 0.578125q1.0625 0 2.03125 -0.546875q0.96875 -0.5625 1.53125 -1.5625q0.5625 -1.0 0.875 -2.84375zm9.128906 4.59375l-0.34375 1.734375q-0.765625 0.203125 -1.484375 0.203125q-1.265625 0 -2.015625 -0.625q-0.5625 -0.46875 -0.5625 -1.28125q0 -0.40625 0.3125 -1.890625l1.515625 -7.234375l-1.6875 0l0.34375 -1.640625l1.671875 0l0.65625 -3.046875l2.421875 -1.46875l-0.953125 4.515625l2.09375 0l-0.359375 1.640625l-2.078125 0l-1.4375 6.890625q-0.265625 1.3125 -0.265625 1.5625q0 0.375 0.21875 0.578125q0.21875 0.203125 0.703125 0.203125q0.703125 0 1.25 -0.140625zm4.7304688 -13.0625l0.5 -2.40625l2.109375 0l-0.5 2.40625l-2.109375 0zm-3.09375 14.78125l2.59375 -12.453125l2.125 0l-2.59375 12.453125l-2.125 0zm14.003906 -4.53125l2.125 0.21875q-0.796875 2.328125 -2.28125 3.46875q-1.46875 1.125 -3.34375 1.125q-2.015625 0 -3.28125 -1.3125q-1.265625 -1.3125 -1.265625 -3.671875q0 -2.03125 0.8125 -4.0q0.8125 -1.96875 2.3125 -3.0q1.515625 -1.03125 3.4375 -1.03125q2.015625 0 3.1875 1.140625q1.171875 1.125 1.171875 2.984375l-2.09375 0.140625q-0.015625 -1.171875 -0.6875 -1.84375q-0.671875 -0.671875 -1.765625 -0.671875q-1.28125 0 -2.21875 0.8125q-0.9375 0.8125 -1.46875 2.453125q-0.53125 1.640625 -0.53125 3.171875q0 1.59375 0.703125 2.390625q0.703125 0.796875 1.734375 0.796875q1.03125 0 1.96875 -0.78125q0.9375 -0.796875 1.484375 -2.390625zm10.371094 4.53125l3.578125 -17.1875l11.171875 0l-0.40625 1.96875l-8.875 0l-1.140625 5.46875l9.046875 0l-0.421875 1.953125l-9.03125 0l-1.625 7.796875l-2.296875 0zm17.378906 -14.78125l0.5 -2.40625l2.109375 0l-0.5 2.40625l-2.109375 0zm-3.09375 14.78125l2.59375 -12.453125l2.125 0l-2.59375 12.453125l-2.125 0zm5.2539062 0l3.578125 -17.1875l2.125 0l-3.59375 17.1875l-2.109375 0zm14.628906 -4.234375l2.0625 0.21875q-0.4375 1.53125 -2.046875 2.921875q-1.59375 1.375 -3.8125 1.375q-1.375 0 -2.53125 -0.640625q-1.15625 -0.640625 -1.765625 -1.859375q-0.59375 -1.21875 -0.59375 -2.78125q0 -2.03125 0.9375 -3.9375q0.9375 -1.921875 2.4375 -2.859375q1.5 -0.9375 3.25 -0.9375q2.234375 0 3.5625 1.390625q1.328125 1.375 1.328125 3.765625q0 0.921875 -0.171875 1.875l-9.15625 0q-0.046875 0.375 -0.046875 0.65625q0 1.75 0.796875 2.671875q0.8125 0.921875 1.96875 0.921875q1.09375 0 2.140625 -0.71875q1.0625 -0.71875 1.640625 -2.0625zm-6.15625 -3.078125l6.984375 0q0 -0.328125 0 -0.46875q0 -1.59375 -0.796875 -2.4375q-0.796875 -0.859375 -2.046875 -0.859375q-1.359375 0 -2.484375 0.9375q-1.109375 0.9375 -1.65625 2.828125zm10.566406 3.0625l2.125 -0.140625q0 0.921875 0.28125 1.5625q0.28125 0.640625 1.03125 1.0625q0.75 0.40625 1.765625 0.40625q1.40625 0 2.109375 -0.5625q0.703125 -0.5625 0.703125 -1.328125q0 -0.546875 -0.421875 -1.046875q-0.4375 -0.484375 -2.125 -1.203125q-1.671875 -0.71875 -2.140625 -1.015625q-0.78125 -0.484375 -1.1875 -1.125q-0.390625 -0.65625 -0.390625 -1.5q0 -1.484375 1.171875 -2.53125q1.171875 -1.0625 3.28125 -1.0625q2.34375 0 3.5625 1.09375q1.21875 1.078125 1.265625 2.84375l-2.0625 0.140625q-0.046875 -1.125 -0.796875 -1.78125q-0.75 -0.65625 -2.125 -0.65625q-1.109375 0 -1.71875 0.515625q-0.609375 0.5 -0.609375 1.078125q0 0.59375 0.53125 1.03125q0.359375 0.3125 1.8125 0.9375q2.4375 1.0625 3.078125 1.671875q1.0 0.96875 1.0 2.359375q0 0.9375 -0.5625 1.828125q-0.5625 0.890625 -1.734375 1.421875q-1.171875 0.53125 -2.75 0.53125q-2.15625 0 -3.671875 -1.0625q-1.5 -1.078125 -1.421875 -3.46875z" fill-rule="nonzero"/><path fill="#b4a7d6" d="m574.96326 118.17337l0 0c0 -3.8182373 3.0952759 -6.9135284 6.913513 -6.9135284l260.97614 0c1.8335571 0 3.592041 0.7283859 4.88855 2.0249252c1.2965698 1.2965393 2.0249634 3.0550156 2.0249634 4.888603l0 27.65326c0 3.8182373 -3.0952759 6.9135284 -6.913513 6.9135284l-260.97614 0c-3.8182373 0 -6.913513 -3.0952911 -6.913513 -6.9135284z" fill-rule="evenodd"/><path stroke="#595959" stroke-width="1.0" stroke-linejoin="round" stroke-linecap="butt" d="m574.96326 118.17337l0 0c0 -3.8182373 3.0952759 -6.9135284 6.913513 -6.9135284l260.97614 0c1.8335571 0 3.592041 0.7283859 4.88855 2.0249252c1.2965698 1.2965393 2.0249634 3.0550156 2.0249634 4.888603l0 27.65326c0 3.8182373 -3.0952759 6.9135284 -6.913513 6.9135284l-260.97614 0c-3.8182373 0 -6.913513 -3.0952911 -6.913513 -6.9135284z" fill-rule="evenodd"/><path fill="#000000" fill-opacity="0.0" d="m640.5932 107.85302l135.55902 0l0 48.472435l-135.55902 0z" fill-rule="evenodd"/><path fill="#000000" d="m655.0463 139.89302l3.171875 -15.21875l-5.640625 0l0.421875 -1.96875l13.515625 0l-0.40625 1.96875l-5.59375 0l-3.171875 15.21875l-2.296875 0zm16.941406 -4.234375l2.0625 0.21875q-0.4375 1.53125 -2.046875 2.921875q-1.59375 1.375 -3.8125 1.375q-1.375 0 -2.53125 -0.640625q-1.15625 -0.640625 -1.765625 -1.859375q-0.59375 -1.21875 -0.59375 -2.78125q0 -2.03125 0.9375 -3.9375q0.9375 -1.921875 2.4375 -2.859375q1.5 -0.9375 3.25 -0.9375q2.234375 0 3.5625 1.390625q1.328125 1.375 1.328125 3.765625q0 0.921875 -0.171875 1.875l-9.15625 0q-0.046875 0.375 -0.046875 0.65625q0 1.75 0.796875 2.671875q0.8125 0.921875 1.96875 0.921875q1.09375 0 2.140625 -0.71875q1.0625 -0.71875 1.640625 -2.0625zm-6.15625 -3.078125l6.984375 0q0 -0.328125 0 -0.46875q0 -1.59375 -0.796875 -2.4375q-0.796875 -0.859375 -2.046875 -0.859375q-1.359375 0 -2.484375 0.9375q-1.109375 0.9375 -1.65625 2.828125zm10.347656 7.3125l2.609375 -12.453125l2.125 0l-0.4375 2.0625q1.1875 -1.328125 2.109375 -1.828125q0.9375 -0.515625 2.03125 -0.515625q1.15625 0 1.9375 0.625q0.78125 0.609375 1.015625 1.71875q0.953125 -1.171875 2.0 -1.75q1.046875 -0.59375 2.21875 -0.59375q1.546875 0 2.328125 0.75q0.78125 0.734375 0.78125 2.0625q0 0.578125 -0.265625 1.90625l-1.671875 8.015625l-2.125 0l1.703125 -8.234375q0.234375 -1.0 0.234375 -1.4375q0 -0.609375 -0.390625 -0.953125q-0.390625 -0.359375 -1.09375 -0.359375q-0.953125 0 -1.9375 0.578125q-0.984375 0.578125 -1.53125 1.515625q-0.53125 0.921875 -0.953125 2.859375l-1.265625 6.03125l-2.109375 0l1.75 -8.40625q0.1875 -0.859375 0.1875 -1.21875q0 -0.609375 -0.390625 -0.984375q-0.375 -0.375 -0.984375 -0.375q-0.890625 0 -1.890625 0.578125q-0.984375 0.578125 -1.609375 1.609375q-0.625 1.015625 -1.015625 2.90625l-1.234375 5.890625l-2.125 0zm18.960938 4.765625l3.609375 -17.21875l1.953125 0l-0.359375 1.734375q1.078125 -1.125 1.9375 -1.5625q0.875 -0.453125 1.828125 -0.453125q1.78125 0 2.953125 1.296875q1.171875 1.296875 1.171875 3.71875q0 1.9375 -0.640625 3.546875q-0.640625 1.59375 -1.578125 2.5625q-0.9375 0.96875 -1.90625 1.4375q-0.953125 0.453125 -1.96875 0.453125q-2.234375 0 -3.46875 -2.28125l-1.40625 6.765625l-2.125 0zm4.203125 -9.859375q0 1.40625 0.203125 1.9375q0.28125 0.765625 0.953125 1.234375q0.671875 0.46875 1.546875 0.46875q1.828125 0 2.953125 -2.046875q1.125 -2.0625 1.125 -4.21875q0 -1.578125 -0.765625 -2.4375q-0.75 -0.859375 -1.875 -0.859375q-0.796875 0 -1.5 0.4375q-0.6875 0.421875 -1.28125 1.265625q-0.59375 0.84375 -0.984375 2.078125q-0.375 1.234375 -0.375 2.140625zm10.035156 5.09375l3.578125 -17.1875l2.125 0l-3.59375 17.1875l-2.109375 0zm13.878906 -1.546875q-1.09375 0.953125 -2.125 1.390625q-1.015625 0.4375 -2.171875 0.4375q-1.71875 0 -2.78125 -1.015625q-1.046875 -1.015625 -1.046875 -2.59375q0 -1.046875 0.46875 -1.84375q0.46875 -0.8125 1.25 -1.296875q0.796875 -0.484375 1.9375 -0.6875q0.703125 -0.140625 2.703125 -0.21875q2.0 -0.09375 2.875 -0.4375q0.234375 -0.859375 0.234375 -1.4375q0 -0.734375 -0.53125 -1.15625q-0.734375 -0.59375 -2.15625 -0.59375q-1.34375 0 -2.1875 0.59375q-0.84375 0.59375 -1.234375 1.6875l-2.140625 -0.1875q0.65625 -1.859375 2.078125 -2.84375q1.421875 -0.984375 3.59375 -0.984375q2.296875 0 3.65625 1.109375q1.03125 0.8125 1.03125 2.125q0 1.0 -0.296875 2.3125l-0.6875 3.09375q-0.328125 1.484375 -0.328125 2.40625q0 0.578125 0.25 1.6875l-2.140625 0q-0.171875 -0.609375 -0.25 -1.546875zm0.78125 -4.765625q-0.4375 0.1875 -0.953125 0.28125q-0.5 0.09375 -1.703125 0.1875q-1.84375 0.171875 -2.609375 0.421875q-0.765625 0.25 -1.15625 0.8125q-0.375 0.546875 -0.375 1.203125q0 0.890625 0.609375 1.46875q0.609375 0.578125 1.75 0.578125q1.0625 0 2.03125 -0.546875q0.96875 -0.5625 1.53125 -1.5625q0.5625 -1.0 0.875 -2.84375zm9.128906 4.59375l-0.34375 1.734375q-0.765625 0.203125 -1.484375 0.203125q-1.265625 0 -2.015625 -0.625q-0.5625 -0.46875 -0.5625 -1.28125q0 -0.40625 0.3125 -1.890625l1.515625 -7.234375l-1.6875 0l0.34375 -1.640625l1.671875 0l0.65625 -3.046875l2.421875 -1.46875l-0.953125 4.515625l2.09375 0l-0.359375 1.640625l-2.078125 0l-1.4375 6.890625q-0.265625 1.3125 -0.265625 1.5625q0 0.375 0.21875 0.578125q0.21875 0.203125 0.703125 0.203125q0.703125 0 1.25 -0.140625zm10.855469 -2.515625l2.0625 0.21875q-0.4375 1.53125 -2.046875 2.921875q-1.59375 1.375 -3.8125 1.375q-1.375 0 -2.53125 -0.640625q-1.15625 -0.640625 -1.765625 -1.859375q-0.59375 -1.21875 -0.59375 -2.78125q0 -2.03125 0.9375 -3.9375q0.9375 -1.921875 2.4375 -2.859375q1.5 -0.9375 3.25 -0.9375q2.234375 0 3.5625 1.390625q1.328125 1.375 1.328125 3.765625q0 0.921875 -0.171875 1.875l-9.15625 0q-0.046875 0.375 -0.046875 0.65625q0 1.75 0.796875 2.671875q0.8125 0.921875 1.96875 0.921875q1.09375 0 2.140625 -0.71875q1.0625 -0.71875 1.640625 -2.0625zm-6.15625 -3.078125l6.984375 0q0 -0.328125 0 -0.46875q0 -1.59375 -0.796875 -2.4375q-0.796875 -0.859375 -2.046875 -0.859375q-1.359375 0 -2.484375 0.9375q-1.109375 0.9375 -1.65625 2.828125zm10.566406 3.0625l2.125 -0.140625q0 0.921875 0.28125 1.5625q0.28125 0.640625 1.03125 1.0625q0.75 0.40625 1.765625 0.40625q1.40625 0 2.109375 -0.5625q0.703125 -0.5625 0.703125 -1.328125q0 -0.546875 -0.421875 -1.046875q-0.4375 -0.484375 -2.125 -1.203125q-1.671875 -0.71875 -2.140625 -1.015625q-0.78125 -0.484375 -1.1875 -1.125q-0.390625 -0.65625 -0.390625 -1.5q0 -1.484375 1.171875 -2.53125q1.171875 -1.0625 3.28125 -1.0625q2.34375 0 3.5625 1.09375q1.21875 1.078125 1.265625 2.84375l-2.0625 0.140625q-0.046875 -1.125 -0.796875 -1.78125q-0.75 -0.65625 -2.125 -0.65625q-1.109375 0 -1.71875 0.515625q-0.609375 0.5 -0.609375 1.078125q0 0.59375 0.53125 1.03125q0.359375 0.3125 1.8125 0.9375q2.4375 1.0625 3.078125 1.671875q1.0 0.96875 1.0 2.359375q0 0.9375 -0.5625 1.828125q-0.5625 0.890625 -1.734375 1.421875q-1.171875 0.53125 -2.75 0.53125q-2.15625 0 -3.671875 -1.0625q-1.5 -1.078125 -1.421875 -3.46875z" fill-rule="nonzero"/><path fill="#f6b26b" d="m78.96326 204.71402l0 0c0 -3.0122528 2.4419174 -5.454178 5.454178 -5.454178l136.93416 0c1.4465485 0 2.8338318 0.57463074 3.8566895 1.5974884c1.0228577 1.0228577 1.5974884 2.4101562 1.5974884 3.8566895l0 21.816055c0 3.0122528 -2.4419098 5.454178 -5.454178 5.454178l-136.93416 0c-3.0122604 0 -5.454178 -2.441925 -5.454178 -5.454178z" fill-rule="evenodd"/><path stroke="#595959" stroke-width="1.0" stroke-linejoin="round" stroke-linecap="butt" d="m78.96326 204.71402l0 0c0 -3.0122528 2.4419174 -5.454178 5.454178 -5.454178l136.93416 0c1.4465485 0 2.8338318 0.57463074 3.8566895 1.5974884c1.0228577 1.0228577 1.5974884 2.4101562 1.5974884 3.8566895l0 21.816055c0 3.0122528 -2.4419098 5.454178 -5.454178 5.454178l-136.93416 0c-3.0122604 0 -5.454178 -2.441925 -5.454178 -5.454178z" fill-rule="evenodd"/><path fill="#000000" fill-opacity="0.0" d="m112.59318 195.85301l91.24409 0l0 35.559067l-91.24409 0z" fill-rule="evenodd"/><path fill="#000000" d="m122.45255 217.65302l0 -9.546875l1.171875 0l0 9.546875l-1.171875 0zm2.99234 -8.1875l0 -1.359375l1.171875 0l0 1.359375l-1.171875 0zm0 8.1875l0 -6.90625l1.171875 0l0 6.90625l-1.171875 0zm2.9454575 0l0 -6.90625l1.0625 0l0 0.984375q0.75 -1.140625 2.1875 -1.140625q0.625 0 1.15625 0.21875q0.53125 0.21875 0.78125 0.59375q0.265625 0.359375 0.375 0.859375q0.0625 0.328125 0.0625 1.140625l0 4.25l-1.171875 0l0 -4.203125q0 -0.71875 -0.140625 -1.0625q-0.140625 -0.359375 -0.484375 -0.5625q-0.34375 -0.21875 -0.8125 -0.21875q-0.75 0 -1.296875 0.46875q-0.546875 0.46875 -0.546875 1.796875l0 3.78125l-1.171875 0zm12.146851 -2.21875l1.203125 0.140625q-0.28125 1.0625 -1.0625 1.65625q-0.765625 0.578125 -1.96875 0.578125q-1.515625 0 -2.40625 -0.9375q-0.890625 -0.9375 -0.890625 -2.609375q0 -1.75 0.890625 -2.703125q0.90625 -0.96875 2.34375 -0.96875q1.390625 0 2.265625 0.9375q0.875 0.9375 0.875 2.65625q0 0.109375 0 0.3125l-5.15625 0q0.0625 1.140625 0.640625 1.75q0.578125 0.59375 1.4375 0.59375q0.65625 0 1.109375 -0.328125q0.453125 -0.34375 0.71875 -1.078125zm-3.84375 -1.90625l3.859375 0q-0.078125 -0.859375 -0.4375 -1.296875q-0.5625 -0.6875 -1.453125 -0.6875q-0.8125 0 -1.359375 0.546875q-0.546875 0.53125 -0.609375 1.4375zm5.4437256 6.78125l0 -0.859375l7.765625 0l0 0.859375l-7.765625 0zm12.974976 -2.65625l0 -0.875q-0.65625 1.03125 -1.9375 1.03125q-0.8125 0 -1.515625 -0.453125q-0.6875 -0.453125 -1.078125 -1.265625q-0.375 -0.828125 -0.375 -1.890625q0 -1.03125 0.34375 -1.875q0.34375 -0.84375 1.03125 -1.28125q0.703125 -0.453125 1.546875 -0.453125q0.625 0 1.109375 0.265625q0.5 0.25 0.796875 0.671875l0 -3.421875l1.171875 0l0 9.546875l-1.09375 0zm-3.703125 -3.453125q0 1.328125 0.5625 1.984375q0.5625 0.65625 1.328125 0.65625q0.765625 0 1.296875 -0.625q0.53125 -0.625 0.53125 -1.90625q0 -1.421875 -0.546875 -2.078125q-0.546875 -0.671875 -1.34375 -0.671875q-0.78125 0 -1.3125 0.640625q-0.515625 0.625 -0.515625 2.0zm11.365601 1.234375l1.203125 0.140625q-0.28125 1.0625 -1.0625 1.65625q-0.765625 0.578125 -1.96875 0.578125q-1.515625 0 -2.40625 -0.9375q-0.890625 -0.9375 -0.890625 -2.609375q0 -1.75 0.890625 -2.703125q0.90625 -0.96875 2.34375 -0.96875q1.390625 0 2.265625 0.9375q0.875 0.9375 0.875 2.65625q0 0.109375 0 0.3125l-5.15625 0q0.0625 1.140625 0.640625 1.75q0.578125 0.59375 1.4375 0.59375q0.65625 0 1.109375 -0.328125q0.453125 -0.34375 0.71875 -1.078125zm-3.84375 -1.90625l3.859375 0q-0.078125 -0.859375 -0.4375 -1.296875q-0.5625 -0.6875 -1.453125 -0.6875q-0.8125 0 -1.359375 0.546875q-0.546875 0.53125 -0.609375 1.4375zm6.8031006 4.125l0 -6.0l-1.03125 0l0 -0.90625l1.03125 0l0 -0.734375q0 -0.703125 0.125 -1.046875q0.171875 -0.453125 0.59375 -0.734375q0.421875 -0.28125 1.203125 -0.28125q0.484375 0 1.09375 0.109375l-0.1875 1.03125q-0.359375 -0.0625 -0.6875 -0.0625q-0.53125 0 -0.75 0.234375q-0.21875 0.21875 -0.21875 0.84375l0 0.640625l1.34375 0l0 0.90625l-1.34375 0l0 6.0l-1.171875 0zm3.7498627 0l0 -1.328125l1.34375 0l0 1.328125l-1.34375 0zm3.3748627 -8.1875l0 -1.359375l1.171875 0l0 1.359375l-1.171875 0zm-1.484375 10.875l0.21875 -1.0q0.359375 0.09375 0.546875 0.09375q0.359375 0 0.53125 -0.25q0.1875 -0.234375 0.1875 -1.1875l0 -7.25l1.171875 0l0 7.28125q0 1.28125 -0.328125 1.78125q-0.4375 0.65625 -1.40625 0.65625q-0.484375 0 -0.921875 -0.125zm3.976715 -4.75l1.15625 -0.1875q0.109375 0.703125 0.546875 1.078125q0.453125 0.359375 1.25 0.359375q0.8125 0 1.203125 -0.328125q0.390625 -0.328125 0.390625 -0.765625q0 -0.390625 -0.359375 -0.625q-0.234375 -0.15625 -1.1875 -0.390625q-1.296875 -0.328125 -1.796875 -0.5625q-0.484375 -0.25 -0.75 -0.65625q-0.25 -0.421875 -0.25 -0.9375q0 -0.453125 0.203125 -0.84375q0.21875 -0.40625 0.578125 -0.671875q0.28125 -0.1875 0.75 -0.328125q0.46875 -0.140625 1.015625 -0.140625q0.8125 0 1.421875 0.234375q0.609375 0.234375 0.90625 0.640625q0.296875 0.390625 0.40625 1.0625l-1.140625 0.15625q-0.078125 -0.53125 -0.453125 -0.828125q-0.375 -0.3125 -1.0625 -0.3125q-0.8125 0 -1.15625 0.265625q-0.34375 0.265625 -0.34375 0.625q0 0.234375 0.140625 0.421875q0.15625 0.1875 0.453125 0.3125q0.171875 0.0625 1.03125 0.296875q1.25 0.328125 1.734375 0.546875q0.5 0.203125 0.78125 0.609375q0.28125 0.40625 0.28125 1.0q0 0.59375 -0.34375 1.109375q-0.34375 0.515625 -1.0 0.796875q-0.640625 0.28125 -1.453125 0.28125q-1.34375 0 -2.046875 -0.5625q-0.703125 -0.5625 -0.90625 -1.65625z" fill-rule="nonzero"/><path fill="#f6b26b" d="m270.96326 204.71402l0 0c0 -3.0122528 2.441925 -5.454178 5.4541626 -5.454178l136.93417 0c1.4465332 0 2.8338318 0.57463074 3.8566895 1.5974884c1.0228577 1.0228577 1.5975037 2.4101562 1.5975037 3.8566895l0 21.816055c0 3.0122528 -2.441925 5.454178 -5.454193 5.454178l-136.93417 0c-3.0122375 0 -5.4541626 -2.441925 -5.4541626 -5.454178z" fill-rule="evenodd"/><path stroke="#595959" stroke-width="1.0" stroke-linejoin="round" stroke-linecap="butt" d="m270.96326 204.71402l0 0c0 -3.0122528 2.441925 -5.454178 5.4541626 -5.454178l136.93417 0c1.4465332 0 2.8338318 0.57463074 3.8566895 1.5974884c1.0228577 1.0228577 1.5975037 2.4101562 1.5975037 3.8566895l0 21.816055c0 3.0122528 -2.441925 5.454178 -5.454193 5.454178l-136.93417 0c-3.0122375 0 -5.4541626 -2.441925 -5.4541626 -5.454178z" fill-rule="evenodd"/><path fill="#000000" fill-opacity="0.0" d="m299.83728 195.85301l96.0 0l0 35.559067l-96.0 0z" fill-rule="evenodd"/><path fill="#000000" d="m309.69666 217.65302l0 -9.546875l1.171875 0l0 9.546875l-1.171875 0zm2.99234 -8.1875l0 -1.359375l1.171875 0l0 1.359375l-1.171875 0zm0 8.1875l0 -6.90625l1.171875 0l0 6.90625l-1.171875 0zm2.945465 0l0 -6.90625l1.0625 0l0 0.984375q0.75 -1.140625 2.1875 -1.140625q0.625 0 1.15625 0.21875q0.53125 0.21875 0.78125 0.59375q0.265625 0.359375 0.375 0.859375q0.0625 0.328125 0.0625 1.140625l0 4.25l-1.171875 0l0 -4.203125q0 -0.71875 -0.140625 -1.0625q-0.140625 -0.359375 -0.484375 -0.5625q-0.34375 -0.21875 -0.8125 -0.21875q-0.75 0 -1.296875 0.46875q-0.546875 0.46875 -0.546875 1.796875l0 3.78125l-1.171875 0zm12.146851 -2.21875l1.203125 0.140625q-0.28125 1.0625 -1.0625 1.65625q-0.765625 0.578125 -1.96875 0.578125q-1.515625 0 -2.40625 -0.9375q-0.890625 -0.9375 -0.890625 -2.609375q0 -1.75 0.890625 -2.703125q0.90625 -0.96875 2.34375 -0.96875q1.390625 0 2.265625 0.9375q0.875 0.9375 0.875 2.65625q0 0.109375 0 0.3125l-5.15625 0q0.0625 1.140625 0.640625 1.75q0.578125 0.59375 1.4375 0.59375q0.65625 0 1.109375 -0.328125q0.453125 -0.34375 0.71875 -1.078125zm-3.84375 -1.90625l3.859375 0q-0.078125 -0.859375 -0.4375 -1.296875q-0.5625 -0.6875 -1.453125 -0.6875q-0.8125 0 -1.359375 0.546875q-0.546875 0.53125 -0.609375 1.4375zm5.4437256 6.78125l0 -0.859375l7.765625 0l0 0.859375l-7.765625 0zm8.021851 -4.71875l1.15625 -0.1875q0.109375 0.703125 0.546875 1.078125q0.453125 0.359375 1.25 0.359375q0.8125 0 1.203125 -0.328125q0.390625 -0.328125 0.390625 -0.765625q0 -0.390625 -0.359375 -0.625q-0.234375 -0.15625 -1.1875 -0.390625q-1.296875 -0.328125 -1.796875 -0.5625q-0.484375 -0.25 -0.75 -0.65625q-0.25 -0.421875 -0.25 -0.9375q0 -0.453125 0.203125 -0.84375q0.21875 -0.40625 0.578125 -0.671875q0.28125 -0.1875 0.75 -0.328125q0.46875 -0.140625 1.015625 -0.140625q0.8125 0 1.421875 0.234375q0.609375 0.234375 0.90625 0.640625q0.296875 0.390625 0.40625 1.0625l-1.140625 0.15625q-0.078125 -0.53125 -0.453125 -0.828125q-0.375 -0.3125 -1.0625 -0.3125q-0.8125 0 -1.15625 0.265625q-0.34375 0.265625 -0.34375 0.625q0 0.234375 0.140625 0.421875q0.15625 0.1875 0.453125 0.3125q0.171875 0.0625 1.03125 0.296875q1.25 0.328125 1.734375 0.546875q0.5 0.203125 0.78125 0.609375q0.28125 0.40625 0.28125 1.0q0 0.59375 -0.34375 1.109375q-0.34375 0.515625 -1.0 0.796875q-0.640625 0.28125 -1.453125 0.28125q-1.34375 0 -2.046875 -0.5625q-0.703125 -0.5625 -0.90625 -1.65625zm11.8671875 -0.15625l1.203125 0.140625q-0.28125 1.0625 -1.0625 1.65625q-0.765625 0.578125 -1.96875 0.578125q-1.515625 0 -2.40625 -0.9375q-0.890625 -0.9375 -0.890625 -2.609375q0 -1.75 0.890625 -2.703125q0.90625 -0.96875 2.34375 -0.96875q1.390625 0 2.265625 0.9375q0.875 0.9375 0.875 2.65625q0 0.109375 0 0.3125l-5.15625 0q0.0625 1.140625 0.640625 1.75q0.578125 0.59375 1.4375 0.59375q0.65625 0 1.109375 -0.328125q0.453125 -0.34375 0.71875 -1.078125zm-3.84375 -1.90625l3.859375 0q-0.078125 -0.859375 -0.4375 -1.296875q-0.5625 -0.6875 -1.453125 -0.6875q-0.8125 0 -1.359375 0.546875q-0.546875 0.53125 -0.609375 1.4375zm6.5062256 4.125l0 -9.546875l1.171875 0l0 9.546875l-1.171875 0zm7.71109 -2.21875l1.203125 0.140625q-0.28125 1.0625 -1.0625 1.65625q-0.765625 0.578125 -1.96875 0.578125q-1.515625 0 -2.40625 -0.9375q-0.890625 -0.9375 -0.890625 -2.609375q0 -1.75 0.890625 -2.703125q0.90625 -0.96875 2.34375 -0.96875q1.390625 0 2.265625 0.9375q0.875 0.9375 0.875 2.65625q0 0.109375 0 0.3125l-5.15625 0q0.0625 1.140625 0.640625 1.75q0.578125 0.59375 1.4375 0.59375q0.65625 0 1.109375 -0.328125q0.453125 -0.34375 0.71875 -1.078125zm-3.84375 -1.90625l3.859375 0q-0.078125 -0.859375 -0.4375 -1.296875q-0.5625 -0.6875 -1.453125 -0.6875q-0.8125 0 -1.359375 0.546875q-0.546875 0.53125 -0.609375 1.4375zm11.037476 1.59375l1.15625 0.15625q-0.1875 1.1875 -0.96875 1.859375q-0.78125 0.671875 -1.921875 0.671875q-1.40625 0 -2.28125 -0.921875q-0.859375 -0.9375 -0.859375 -2.65625q0 -1.125 0.375 -1.96875q0.375 -0.84375 1.125 -1.25q0.765625 -0.421875 1.65625 -0.421875q1.125 0 1.84375 0.578125q0.71875 0.5625 0.921875 1.609375l-1.140625 0.171875q-0.171875 -0.703125 -0.59375 -1.046875q-0.40625 -0.359375 -0.984375 -0.359375q-0.890625 0 -1.453125 0.640625q-0.546875 0.640625 -0.546875 2.0q0 1.40625 0.53125 2.03125q0.546875 0.625 1.40625 0.625q0.6875 0 1.140625 -0.421875q0.46875 -0.421875 0.59375 -1.296875zm4.7109375 1.484375l0.171875 1.03125q-0.5 0.109375 -0.890625 0.109375q-0.640625 0 -1.0 -0.203125q-0.34375 -0.203125 -0.484375 -0.53125q-0.140625 -0.328125 -0.140625 -1.390625l0 -3.96875l-0.859375 0l0 -0.90625l0.859375 0l0 -1.71875l1.171875 -0.703125l0 2.421875l1.171875 0l0 0.90625l-1.171875 0l0 4.046875q0 0.5 0.046875 0.640625q0.0625 0.140625 0.203125 0.234375q0.140625 0.078125 0.40625 0.078125q0.203125 0 0.515625 -0.046875zm1.4685974 1.046875l0 -1.328125l1.34375 0l0 1.328125l-1.34375 0zm3.374878 -8.1875l0 -1.359375l1.171875 0l0 1.359375l-1.171875 0zm-1.484375 10.875l0.21875 -1.0q0.359375 0.09375 0.546875 0.09375q0.359375 0 0.53125 -0.25q0.1875 -0.234375 0.1875 -1.1875l0 -7.25l1.171875 0l0 7.28125q0 1.28125 -0.328125 1.78125q-0.4375 0.65625 -1.40625 0.65625q-0.484375 0 -0.921875 -0.125zm3.976715 -4.75l1.15625 -0.1875q0.109375 0.703125 0.546875 1.078125q0.453125 0.359375 1.25 0.359375q0.8125 0 1.203125 -0.328125q0.390625 -0.328125 0.390625 -0.765625q0 -0.390625 -0.359375 -0.625q-0.234375 -0.15625 -1.1875 -0.390625q-1.296875 -0.328125 -1.796875 -0.5625q-0.484375 -0.25 -0.75 -0.65625q-0.25 -0.421875 -0.25 -0.9375q0 -0.453125 0.203125 -0.84375q0.21875 -0.40625 0.578125 -0.671875q0.28125 -0.1875 0.75 -0.328125q0.46875 -0.140625 1.015625 -0.140625q0.8125 0 1.421875 0.234375q0.609375 0.234375 0.90625 0.640625q0.296875 0.390625 0.40625 1.0625l-1.140625 0.15625q-0.078125 -0.53125 -0.453125 -0.828125q-0.375 -0.3125 -1.0625 -0.3125q-0.8125 0 -1.15625 0.265625q-0.34375 0.265625 -0.34375 0.625q0 0.234375 0.140625 0.421875q0.15625 0.1875 0.453125 0.3125q0.171875 0.0625 1.03125 0.296875q1.25 0.328125 1.734375 0.546875q0.5 0.203125 0.78125 0.609375q0.28125 0.40625 0.28125 1.0q0 0.59375 -0.34375 1.109375q-0.34375 0.515625 -1.0 0.796875q-0.640625 0.28125 -1.453125 0.28125q-1.34375 0 -2.046875 -0.5625q-0.703125 -0.5625 -0.90625 -1.65625z" fill-rule="nonzero"/><path fill="#f6b26b" d="m174.96326 252.71402l0 0c0 -3.0122528 2.4419098 -5.454178 5.454178 -5.454178l136.93416 0c1.4465332 0 2.8338318 0.57463074 3.8566895 1.5974884c1.0228577 1.0228577 1.5975037 2.4101562 1.5975037 3.8566895l0 21.81604c0 3.012268 -2.441925 5.454193 -5.454193 5.454193l-136.93416 0c-3.012268 0 -5.454178 -2.441925 -5.454178 -5.454193z" fill-rule="evenodd"/><path stroke="#595959" stroke-width="1.0" stroke-linejoin="round" stroke-linecap="butt" d="m174.96326 252.71402l0 0c0 -3.0122528 2.4419098 -5.454178 5.454178 -5.454178l136.93416 0c1.4465332 0 2.8338318 0.57463074 3.8566895 1.5974884c1.0228577 1.0228577 1.5975037 2.4101562 1.5975037 3.8566895l0 21.81604c0 3.012268 -2.441925 5.454193 -5.454193 5.454193l-136.93416 0c-3.012268 0 -5.454178 -2.441925 -5.454178 -5.454193z" fill-rule="evenodd"/><path fill="#000000" fill-opacity="0.0" d="m197.03674 243.85301l121.480316 0l0 35.559067l-121.480316 0z" fill-rule="evenodd"/><path fill="#000000" d="m207.0055 265.653l0 -9.546875l1.265625 0l0 8.421875l4.703125 0l0 1.125l-5.96875 0zm7.3343506 -8.1875l0 -1.359375l1.171875 0l0 1.359375l-1.171875 0zm0 8.1875l0 -6.90625l1.171875 0l0 6.90625l-1.171875 0zm2.945465 0l0 -6.90625l1.0625 0l0 0.984375q0.75 -1.140625 2.1875 -1.140625q0.625 0 1.15625 0.21875q0.53125 0.21875 0.78125 0.59375q0.265625 0.359375 0.375 0.859375q0.0625 0.328125 0.0625 1.140625l0 4.25l-1.171875 0l0 -4.203125q0 -0.71875 -0.140625 -1.0625q-0.140625 -0.359375 -0.484375 -0.5625q-0.34375 -0.21875 -0.8125 -0.21875q-0.75 0 -1.296875 0.46875q-0.546875 0.46875 -0.546875 1.796875l0 3.78125l-1.171875 0zm7.4281006 0l0 -9.546875l1.171875 0l0 5.453125l2.765625 -2.8125l1.515625 0l-2.640625 2.5625l2.90625 4.34375l-1.4375 0l-2.28125 -3.53125l-0.828125 0.796875l0 2.734375l-1.171875 0zm5.5703125 2.65625l0 -0.859375l7.765625 0l0 0.859375l-7.765625 0zm14.896851 -12.203125l1.265625 0l0 5.515625q0 1.4375 -0.328125 2.296875q-0.3125 0.84375 -1.171875 1.375q-0.84375 0.515625 -2.21875 0.515625q-1.34375 0 -2.203125 -0.453125q-0.84375 -0.46875 -1.21875 -1.34375q-0.359375 -0.875 -0.359375 -2.390625l0 -5.515625l1.265625 0l0 5.515625q0 1.234375 0.21875 1.828125q0.234375 0.59375 0.796875 0.921875q0.5625 0.3125 1.390625 0.3125q1.390625 0 1.96875 -0.625q0.59375 -0.640625 0.59375 -2.4375l0 -5.515625zm3.2189026 12.203125l0 -9.5625l1.078125 0l0 0.890625q0.375 -0.53125 0.84375 -0.78125q0.484375 -0.265625 1.15625 -0.265625q0.875 0 1.546875 0.453125q0.6875 0.453125 1.03125 1.28125q0.34375 0.828125 0.34375 1.828125q0 1.046875 -0.375 1.90625q-0.375 0.84375 -1.109375 1.296875q-0.71875 0.453125 -1.53125 0.453125q-0.578125 0 -1.046875 -0.25q-0.46875 -0.25 -0.765625 -0.625l0 3.375l-1.171875 0zm1.0625 -6.078125q0 1.34375 0.53125 1.984375q0.546875 0.625 1.3125 0.625q0.78125 0 1.34375 -0.65625q0.5625 -0.65625 0.5625 -2.046875q0 -1.3125 -0.546875 -1.96875q-0.546875 -0.671875 -1.296875 -0.671875q-0.75 0 -1.328125 0.703125q-0.578125 0.703125 -0.578125 2.03125zm10.834351 3.421875l0 -0.875q-0.65625 1.03125 -1.9375 1.03125q-0.8125 0 -1.515625 -0.453125q-0.6875 -0.453125 -1.078125 -1.265625q-0.375 -0.828125 -0.375 -1.890625q0 -1.03125 0.34375 -1.875q0.34375 -0.84375 1.03125 -1.28125q0.703125 -0.453125 1.546875 -0.453125q0.625 0 1.109375 0.265625q0.5 0.25 0.796875 0.671875l0 -3.421875l1.171875 0l0 9.546875l-1.09375 0zm-3.703125 -3.453125q0 1.328125 0.5625 1.984375q0.5625 0.65625 1.328125 0.65625q0.765625 0 1.296875 -0.625q0.53125 -0.625 0.53125 -1.90625q0 -1.421875 -0.546875 -2.078125q-0.546875 -0.671875 -1.34375 -0.671875q-0.78125 0 -1.3125 0.640625q-0.515625 0.625 -0.515625 2.0zm11.146851 2.59375q-0.65625 0.5625 -1.265625 0.796875q-0.59375 0.21875 -1.28125 0.21875q-1.140625 0 -1.75 -0.546875q-0.609375 -0.5625 -0.609375 -1.4375q0 -0.5 0.21875 -0.921875q0.234375 -0.421875 0.609375 -0.671875q0.375 -0.25 0.84375 -0.390625q0.34375 -0.078125 1.046875 -0.171875q1.421875 -0.171875 2.09375 -0.40625q0 -0.234375 0 -0.296875q0 -0.71875 -0.328125 -1.015625q-0.453125 -0.390625 -1.34375 -0.390625q-0.8125 0 -1.21875 0.296875q-0.390625 0.28125 -0.578125 1.015625l-1.140625 -0.15625q0.15625 -0.734375 0.515625 -1.1875q0.359375 -0.453125 1.03125 -0.6875q0.671875 -0.25 1.5625 -0.25q0.890625 0 1.4375 0.203125q0.5625 0.203125 0.8125 0.53125q0.265625 0.3125 0.375 0.796875q0.046875 0.296875 0.046875 1.078125l0 1.5625q0 1.625 0.078125 2.0625q0.078125 0.4375 0.296875 0.828125l-1.21875 0q-0.1875 -0.359375 -0.234375 -0.859375zm-0.09375 -2.609375q-0.640625 0.265625 -1.921875 0.4375q-0.71875 0.109375 -1.015625 0.25q-0.296875 0.125 -0.46875 0.375q-0.15625 0.25 -0.15625 0.546875q0 0.46875 0.34375 0.78125q0.359375 0.3125 1.046875 0.3125q0.671875 0 1.203125 -0.296875q0.53125 -0.296875 0.78125 -0.8125q0.1875 -0.390625 0.1875 -1.171875l0 -0.421875zm5.5531006 2.421875l0.171875 1.03125q-0.5 0.109375 -0.890625 0.109375q-0.640625 0 -1.0 -0.203125q-0.34375 -0.203125 -0.484375 -0.53125q-0.140625 -0.328125 -0.140625 -1.390625l0 -3.96875l-0.859375 0l0 -0.90625l0.859375 0l0 -1.71875l1.171875 -0.703125l0 2.421875l1.171875 0l0 0.90625l-1.171875 0l0 4.046875q0 0.5 0.046875 0.640625q0.0625 0.140625 0.203125 0.234375q0.140625 0.078125 0.40625 0.078125q0.203125 0 0.515625 -0.046875zm5.874878 -1.171875l1.203125 0.140625q-0.28125 1.0625 -1.0625 1.65625q-0.765625 0.578125 -1.96875 0.578125q-1.515625 0 -2.40625 -0.9375q-0.890625 -0.9375 -0.890625 -2.609375q0 -1.75 0.890625 -2.703125q0.90625 -0.96875 2.34375 -0.96875q1.390625 0 2.265625 0.9375q0.875 0.9375 0.875 2.65625q0 0.109375 0 0.3125l-5.15625 0q0.0625 1.140625 0.640625 1.75q0.578125 0.59375 1.4375 0.59375q0.65625 0 1.109375 -0.328125q0.453125 -0.34375 0.71875 -1.078125zm-3.84375 -1.90625l3.859375 0q-0.078125 -0.859375 -0.4375 -1.296875q-0.5625 -0.6875 -1.453125 -0.6875q-0.8125 0 -1.359375 0.546875q-0.546875 0.53125 -0.609375 1.4375zm6.0531006 2.0625l1.15625 -0.1875q0.109375 0.703125 0.546875 1.078125q0.453125 0.359375 1.25 0.359375q0.8125 0 1.203125 -0.328125q0.390625 -0.328125 0.390625 -0.765625q0 -0.390625 -0.359375 -0.625q-0.234375 -0.15625 -1.1875 -0.390625q-1.296875 -0.328125 -1.796875 -0.5625q-0.484375 -0.25 -0.75 -0.65625q-0.25 -0.421875 -0.25 -0.9375q0 -0.453125 0.203125 -0.84375q0.21875 -0.40625 0.578125 -0.671875q0.28125 -0.1875 0.75 -0.328125q0.46875 -0.140625 1.015625 -0.140625q0.8125 0 1.421875 0.234375q0.609375 0.234375 0.90625 0.640625q0.296875 0.390625 0.40625 1.0625l-1.140625 0.15625q-0.078125 -0.53125 -0.453125 -0.828125q-0.375 -0.3125 -1.0625 -0.3125q-0.8125 0 -1.15625 0.265625q-0.34375 0.265625 -0.34375 0.625q0 0.234375 0.140625 0.421875q0.15625 0.1875 0.453125 0.3125q0.171875 0.0625 1.03125 0.296875q1.25 0.328125 1.734375 0.546875q0.5 0.203125 0.78125 0.609375q0.28125 0.40625 0.28125 1.0q0 0.59375 -0.34375 1.109375q-0.34375 0.515625 -1.0 0.796875q-0.640625 0.28125 -1.453125 0.28125q-1.34375 0 -2.046875 -0.5625q-0.703125 -0.5625 -0.90625 -1.65625zm7.4609375 2.0625l0 -1.328125l1.34375 0l0 1.328125l-1.34375 0zm3.3748474 -8.1875l0 -1.359375l1.171875 0l0 1.359375l-1.171875 0zm-1.484375 10.875l0.21875 -1.0q0.359375 0.09375 0.546875 0.09375q0.359375 0 0.53125 -0.25q0.1875 -0.234375 0.1875 -1.1875l0 -7.25l1.171875 0l0 7.28125q0 1.28125 -0.328125 1.78125q-0.4375 0.65625 -1.40625 0.65625q-0.484375 0 -0.921875 -0.125zm3.976715 -4.75l1.15625 -0.1875q0.109375 0.703125 0.546875 1.078125q0.453125 0.359375 1.25 0.359375q0.8125 0 1.203125 -0.328125q0.390625 -0.328125 0.390625 -0.765625q0 -0.390625 -0.359375 -0.625q-0.234375 -0.15625 -1.1875 -0.390625q-1.296875 -0.328125 -1.796875 -0.5625q-0.484375 -0.25 -0.75 -0.65625q-0.25 -0.421875 -0.25 -0.9375q0 -0.453125 0.203125 -0.84375q0.21875 -0.40625 0.578125 -0.671875q0.28125 -0.1875 0.75 -0.328125q0.46875 -0.140625 1.015625 -0.140625q0.8125 0 1.421875 0.234375q0.609375 0.234375 0.90625 0.640625q0.296875 0.390625 0.40625 1.0625l-1.140625 0.15625q-0.078125 -0.53125 -0.453125 -0.828125q-0.375 -0.3125 -1.0625 -0.3125q-0.8125 0 -1.15625 0.265625q-0.34375 0.265625 -0.34375 0.625q0 0.234375 0.140625 0.421875q0.15625 0.1875 0.453125 0.3125q0.171875 0.0625 1.03125 0.296875q1.25 0.328125 1.734375 0.546875q0.5 0.203125 0.78125 0.609375q0.28125 0.40625 0.28125 1.0q0 0.59375 -0.34375 1.109375q-0.34375 0.515625 -1.0 0.796875q-0.640625 0.28125 -1.453125 0.28125q-1.34375 0 -2.046875 -0.5625q-0.703125 -0.5625 -0.90625 -1.65625z" fill-rule="nonzero"/><path fill="#f6b26b" d="m78.96326 300.71402l0 0c0 -3.012268 2.4419174 -5.4541626 5.454178 -5.4541626l136.93416 0c1.4465485 0 2.8338318 0.5746155 3.8566895 1.5974731c1.0228577 1.0228577 1.5974884 2.4101562 1.5974884 3.8566895l0 21.81604c0 3.012268 -2.4419098 5.454193 -5.454178 5.454193l-136.93416 0c-3.0122604 0 -5.454178 -2.441925 -5.454178 -5.454193z" fill-rule="evenodd"/><path stroke="#595959" stroke-width="1.0" stroke-linejoin="round" stroke-linecap="butt" d="m78.96326 300.71402l0 0c0 -3.012268 2.4419174 -5.4541626 5.454178 -5.4541626l136.93416 0c1.4465485 0 2.8338318 0.5746155 3.8566895 1.5974731c1.0228577 1.0228577 1.5974884 2.4101562 1.5974884 3.8566895l0 21.81604c0 3.012268 -2.4419098 5.454193 -5.454178 5.454193l-136.93416 0c-3.0122604 0 -5.454178 -2.441925 -5.454178 -5.454193z" fill-rule="evenodd"/><path fill="#000000" fill-opacity="0.0" d="m73.1601 291.85303l157.95276 0l0 35.55905l-157.95276 0z" fill-rule="evenodd"/><path fill="#000000" d="m83.01948 313.653l0 -9.546875l1.171875 0l0 9.546875l-1.171875 0zm2.99234 -8.1875l0 -1.359375l1.171875 0l0 1.359375l-1.171875 0zm0 8.1875l0 -6.90625l1.171875 0l0 6.90625l-1.171875 0zm2.945465 0l0 -6.90625l1.0625 0l0 0.984375q0.75 -1.140625 2.1875 -1.140625q0.625 0 1.15625 0.21875q0.53125 0.21875 0.78125 0.59375q0.265625 0.359375 0.375 0.859375q0.0625 0.328125 0.0625 1.140625l0 4.25l-1.171875 0l0 -4.203125q0 -0.71875 -0.140625 -1.0625q-0.140625 -0.359375 -0.484375 -0.5625q-0.34375 -0.21875 -0.8125 -0.21875q-0.75 0 -1.296875 0.46875q-0.546875 0.46875 -0.546875 1.796875l0 3.78125l-1.171875 0zm7.4281006 0l0 -9.546875l1.171875 0l0 5.453125l2.765625 -2.8125l1.515625 0l-2.640625 2.5625l2.90625 4.34375l-1.4375 0l-2.28125 -3.53125l-0.828125 0.796875l0 2.734375l-1.171875 0zm5.5703125 2.65625l0 -0.859375l7.765625 0l0 0.859375l-7.765625 0zm10.412476 -2.65625l-2.625 -6.90625l1.234375 0l1.484375 4.140625q0.234375 0.65625 0.4375 1.390625q0.15625 -0.546875 0.4375 -1.3125l1.53125 -4.21875l1.21875 0l-2.625 6.90625l-1.09375 0zm9.2578125 -0.859375q-0.65625 0.5625 -1.265625 0.796875q-0.59375 0.21875 -1.28125 0.21875q-1.140625 0 -1.75 -0.546875q-0.609375 -0.5625 -0.609375 -1.4375q0 -0.5 0.21875 -0.921875q0.234375 -0.421875 0.609375 -0.671875q0.375 -0.25 0.84375 -0.390625q0.34375 -0.078125 1.046875 -0.171875q1.421875 -0.171875 2.09375 -0.40625q0 -0.234375 0 -0.296875q0 -0.71875 -0.328125 -1.015625q-0.453125 -0.390625 -1.34375 -0.390625q-0.8125 0 -1.21875 0.296875q-0.390625 0.28125 -0.578125 1.015625l-1.140625 -0.15625q0.15625 -0.734375 0.515625 -1.1875q0.359375 -0.453125 1.03125 -0.6875q0.671875 -0.25 1.5625 -0.25q0.890625 0 1.4375 0.203125q0.5625 0.203125 0.8125 0.53125q0.265625 0.3125 0.375 0.796875q0.046875 0.296875 0.046875 1.078125l0 1.5625q0 1.625 0.078125 2.0625q0.078125 0.4375 0.296875 0.828125l-1.21875 0q-0.1875 -0.359375 -0.234375 -0.859375zm-0.09375 -2.609375q-0.640625 0.265625 -1.921875 0.4375q-0.71875 0.109375 -1.015625 0.25q-0.296875 0.125 -0.46875 0.375q-0.15625 0.25 -0.15625 0.546875q0 0.46875 0.34375 0.78125q0.359375 0.3125 1.046875 0.3125q0.671875 0 1.203125 -0.296875q0.53125 -0.296875 0.78125 -0.8125q0.1875 -0.390625 0.1875 -1.171875l0 -0.421875zm2.9749756 3.46875l0 -9.546875l1.171875 0l0 9.546875l-1.171875 0zm7.7110977 -2.21875l1.203125 0.140625q-0.28125 1.0625 -1.0625 1.65625q-0.765625 0.578125 -1.96875 0.578125q-1.515625 0 -2.4062576 -0.9375q-0.890625 -0.9375 -0.890625 -2.609375q0 -1.75 0.890625 -2.703125q0.9062576 -0.96875 2.3437576 -0.96875q1.390625 0 2.265625 0.9375q0.875 0.9375 0.875 2.65625q0 0.109375 0 0.3125l-5.15625 0q0.0625 1.140625 0.640625 1.75q0.578125 0.59375 1.4375 0.59375q0.65625 0 1.109375 -0.328125q0.453125 -0.34375 0.71875 -1.078125zm-3.84375 -1.90625l3.859375 0q-0.078125 -0.859375 -0.4375 -1.296875q-0.5625 -0.6875 -1.453125 -0.6875q-0.8125 0 -1.359375 0.546875q-0.546875 0.53125 -0.609375 1.4375zm6.5218506 4.125l0 -6.90625l1.0625 0l0 0.984375q0.75 -1.140625 2.1875 -1.140625q0.625 0 1.15625 0.21875q0.53125 0.21875 0.78125 0.59375q0.265625 0.359375 0.375 0.859375q0.0625 0.328125 0.0625 1.140625l0 4.25l-1.171875 0l0 -4.203125q0 -0.71875 -0.140625 -1.0625q-0.140625 -0.359375 -0.484375 -0.5625q-0.34375 -0.21875 -0.8125 -0.21875q-0.75 0 -1.296875 0.46875q-0.546875 0.46875 -0.546875 1.796875l0 3.78125l-1.171875 0zm11.928101 -2.53125l1.15625 0.15625q-0.1875 1.1875 -0.96875 1.859375q-0.78125 0.671875 -1.921875 0.671875q-1.40625 0 -2.28125 -0.921875q-0.859375 -0.9375 -0.859375 -2.65625q0 -1.125 0.375 -1.96875q0.375 -0.84375 1.125 -1.25q0.765625 -0.421875 1.65625 -0.421875q1.125 0 1.84375 0.578125q0.71875 0.5625 0.921875 1.609375l-1.140625 0.171875q-0.171875 -0.703125 -0.59375 -1.046875q-0.40625 -0.359375 -0.984375 -0.359375q-0.890625 0 -1.453125 0.640625q-0.546875 0.640625 -0.546875 2.0q0 1.40625 0.53125 2.03125q0.546875 0.625 1.40625 0.625q0.6875 0 1.140625 -0.421875q0.46875 -0.421875 0.59375 -1.296875zm6.8828125 0.3125l1.203125 0.140625q-0.28125 1.0625 -1.0625 1.65625q-0.765625 0.578125 -1.96875 0.578125q-1.515625 0 -2.40625 -0.9375q-0.890625 -0.9375 -0.890625 -2.609375q0 -1.75 0.890625 -2.703125q0.90625 -0.96875 2.34375 -0.96875q1.390625 0 2.265625 0.9375q0.875 0.9375 0.875 2.65625q0 0.109375 0 0.3125l-5.15625 0q0.0625 1.140625 0.640625 1.75q0.578125 0.59375 1.4375 0.59375q0.65625 0 1.109375 -0.328125q0.453125 -0.34375 0.71875 -1.078125zm-3.84375 -1.90625l3.859375 0q-0.078125 -0.859375 -0.4375 -1.296875q-0.5625 -0.6875 -1.453125 -0.6875q-0.8125 0 -1.359375 0.546875q-0.546875 0.53125 -0.609375 1.4375zm5.4437256 6.78125l0 -0.859375l7.765625 0l0 0.859375l-7.765625 0zm13.021851 -2.65625l0 -1.015625q-0.8125 1.171875 -2.1875 1.171875q-0.609375 0 -1.140625 -0.234375q-0.53125 -0.234375 -0.796875 -0.578125q-0.25 -0.359375 -0.359375 -0.875q-0.0625 -0.34375 -0.0625 -1.09375l0 -4.28125l1.171875 0l0 3.828125q0 0.921875 0.0625 1.234375q0.109375 0.46875 0.46875 0.734375q0.359375 0.25 0.890625 0.25q0.515625 0 0.984375 -0.265625q0.46875 -0.265625 0.65625 -0.734375q0.1875 -0.46875 0.1875 -1.34375l0 -3.703125l1.171875 0l0 6.90625l-1.046875 0zm2.8812256 2.65625l0 -9.5625l1.078125 0l0 0.890625q0.375 -0.53125 0.84375 -0.78125q0.484375 -0.265625 1.15625 -0.265625q0.875 0 1.546875 0.453125q0.6875 0.453125 1.03125 1.28125q0.34375 0.828125 0.34375 1.828125q0 1.046875 -0.375 1.90625q-0.375 0.84375 -1.109375 1.296875q-0.71875 0.453125 -1.53125 0.453125q-0.578125 0 -1.046875 -0.25q-0.46875 -0.25 -0.765625 -0.625l0 3.375l-1.171875 0zm1.0625 -6.078125q0 1.34375 0.53125 1.984375q0.546875 0.625 1.3125 0.625q0.78125 0 1.34375 -0.65625q0.5625 -0.65625 0.5625 -2.046875q0 -1.3125 -0.546875 -1.96875q-0.546875 -0.671875 -1.296875 -0.671875q-0.75 0 -1.328125 0.703125q-0.578125 0.703125 -0.578125 2.03125zm10.834351 3.421875l0 -0.875q-0.65625 1.03125 -1.9375 1.03125q-0.8125 0 -1.515625 -0.453125q-0.6875 -0.453125 -1.078125 -1.265625q-0.375 -0.828125 -0.375 -1.890625q0 -1.03125 0.34375 -1.875q0.34375 -0.84375 1.03125 -1.28125q0.703125 -0.453125 1.546875 -0.453125q0.625 0 1.109375 0.265625q0.5 0.25 0.796875 0.671875l0 -3.421875l1.171875 0l0 9.546875l-1.09375 0zm-3.703125 -3.453125q0 1.328125 0.5625 1.984375q0.5625 0.65625 1.328125 0.65625q0.765625 0 1.296875 -0.625q0.53125 -0.625 0.53125 -1.90625q0 -1.421875 -0.546875 -2.078125q-0.546875 -0.671875 -1.34375 -0.671875q-0.78125 0 -1.3125 0.640625q-0.515625 0.625 -0.515625 2.0zm11.146851 2.59375q-0.65625 0.5625 -1.265625 0.796875q-0.59375 0.21875 -1.28125 0.21875q-1.140625 0 -1.75 -0.546875q-0.609375 -0.5625 -0.609375 -1.4375q0 -0.5 0.21875 -0.921875q0.234375 -0.421875 0.609375 -0.671875q0.375 -0.25 0.84375 -0.390625q0.34375 -0.078125 1.046875 -0.171875q1.421875 -0.171875 2.09375 -0.40625q0 -0.234375 0 -0.296875q0 -0.71875 -0.328125 -1.015625q-0.453125 -0.390625 -1.34375 -0.390625q-0.8125 0 -1.21875 0.296875q-0.390625 0.28125 -0.578125 1.015625l-1.140625 -0.15625q0.15625 -0.734375 0.515625 -1.1875q0.359375 -0.453125 1.03125 -0.6875q0.671875 -0.25 1.5625 -0.25q0.890625 0 1.4375 0.203125q0.5625 0.203125 0.8125 0.53125q0.265625 0.3125 0.375 0.796875q0.046875 0.296875 0.046875 1.078125l0 1.5625q0 1.625 0.078125 2.0625q0.078125 0.4375 0.296875 0.828125l-1.21875 0q-0.1875 -0.359375 -0.234375 -0.859375zm-0.09375 -2.609375q-0.640625 0.265625 -1.921875 0.4375q-0.71875 0.109375 -1.015625 0.25q-0.296875 0.125 -0.46875 0.375q-0.15625 0.25 -0.15625 0.546875q0 0.46875 0.34375 0.78125q0.359375 0.3125 1.046875 0.3125q0.671875 0 1.203125 -0.296875q0.53125 -0.296875 0.78125 -0.8125q0.1875 -0.390625 0.1875 -1.171875l0 -0.421875zm5.5531006 2.421875l0.171875 1.03125q-0.5 0.109375 -0.890625 0.109375q-0.640625 0 -1.0 -0.203125q-0.34375 -0.203125 -0.484375 -0.53125q-0.140625 -0.328125 -0.140625 -1.390625l0 -3.96875l-0.859375 0l0 -0.90625l0.859375 0l0 -1.71875l1.171875 -0.703125l0 2.421875l1.171875 0l0 0.90625l-1.171875 0l0 4.046875q0 0.5 0.046875 0.640625q0.0625 0.140625 0.203125 0.234375q0.140625 0.078125 0.40625 0.078125q0.203125 0 0.515625 -0.046875zm5.8748627 -1.171875l1.203125 0.140625q-0.28125 1.0625 -1.0625 1.65625q-0.765625 0.578125 -1.96875 0.578125q-1.515625 0 -2.40625 -0.9375q-0.890625 -0.9375 -0.890625 -2.609375q0 -1.75 0.890625 -2.703125q0.90625 -0.96875 2.34375 -0.96875q1.390625 0 2.265625 0.9375q0.875 0.9375 0.875 2.65625q0 0.109375 0 0.3125l-5.15625 0q0.0625 1.140625 0.640625 1.75q0.578125 0.59375 1.4375 0.59375q0.65625 0 1.109375 -0.328125q0.453125 -0.34375 0.71875 -1.078125zm-3.84375 -1.90625l3.859375 0q-0.078125 -0.859375 -0.4375 -1.296875q-0.5625 -0.6875 -1.453125 -0.6875q-0.8125 0 -1.359375 0.546875q-0.546875 0.53125 -0.609375 1.4375zm6.8499756 4.125l0 -1.328125l1.34375 0l0 1.328125l-1.34375 0zm3.3748627 -8.1875l0 -1.359375l1.171875 0l0 1.359375l-1.171875 0zm-1.484375 10.875l0.21875 -1.0q0.359375 0.09375 0.546875 0.09375q0.359375 0 0.53125 -0.25q0.1875 -0.234375 0.1875 -1.1875l0 -7.25l1.171875 0l0 7.28125q0 1.28125 -0.328125 1.78125q-0.4375 0.65625 -1.40625 0.65625q-0.484375 0 -0.921875 -0.125zm3.976715 -4.75l1.15625 -0.1875q0.109375 0.703125 0.546875 1.078125q0.453125 0.359375 1.25 0.359375q0.8125 0 1.203125 -0.328125q0.390625 -0.328125 0.390625 -0.765625q0 -0.390625 -0.359375 -0.625q-0.234375 -0.15625 -1.1875 -0.390625q-1.296875 -0.328125 -1.796875 -0.5625q-0.484375 -0.25 -0.75 -0.65625q-0.25 -0.421875 -0.25 -0.9375q0 -0.453125 0.203125 -0.84375q0.21875 -0.40625 0.578125 -0.671875q0.28125 -0.1875 0.75 -0.328125q0.46875 -0.140625 1.015625 -0.140625q0.8125 0 1.421875 0.234375q0.609375 0.234375 0.90625 0.640625q0.296875 0.390625 0.40625 1.0625l-1.140625 0.15625q-0.078125 -0.53125 -0.453125 -0.828125q-0.375 -0.3125 -1.0625 -0.3125q-0.8125 0 -1.15625 0.265625q-0.34375 0.265625 -0.34375 0.625q0 0.234375 0.140625 0.421875q0.15625 0.1875 0.453125 0.3125q0.171875 0.0625 1.03125 0.296875q1.25 0.328125 1.734375 0.546875q0.5 0.203125 0.78125 0.609375q0.28125 0.40625 0.28125 1.0q0 0.59375 -0.34375 1.109375q-0.34375 0.515625 -1.0 0.796875q-0.640625 0.28125 -1.453125 0.28125q-1.34375 0 -2.046875 -0.5625q-0.703125 -0.5625 -0.90625 -1.65625z" fill-rule="nonzero"/><path fill="#f6b26b" d="m270.96326 300.71402l0 0c0 -3.012268 2.441925 -5.4541626 5.4541626 -5.4541626l136.93417 0c1.4465332 0 2.8338318 0.5746155 3.8566895 1.5974731c1.0228577 1.0228577 1.5975037 2.4101562 1.5975037 3.8566895l0 21.81604c0 3.012268 -2.441925 5.454193 -5.454193 5.454193l-136.93417 0c-3.0122375 0 -5.4541626 -2.441925 -5.4541626 -5.454193z" fill-rule="evenodd"/><path stroke="#595959" stroke-width="1.0" stroke-linejoin="round" stroke-linecap="butt" d="m270.96326 300.71402l0 0c0 -3.012268 2.441925 -5.4541626 5.4541626 -5.4541626l136.93417 0c1.4465332 0 2.8338318 0.5746155 3.8566895 1.5974731c1.0228577 1.0228577 1.5975037 2.4101562 1.5975037 3.8566895l0 21.81604c0 3.012268 -2.441925 5.454193 -5.454193 5.454193l-136.93417 0c-3.0122375 0 -5.4541626 -2.441925 -5.4541626 -5.454193z" fill-rule="evenodd"/><path fill="#000000" fill-opacity="0.0" d="m296.2966 291.85303l99.52756 0l0 35.55905l-99.52756 0z" fill-rule="evenodd"/><path fill="#000000" d="m305.70285 311.5905l1.15625 -0.1875q0.109375 0.703125 0.546875 1.078125q0.453125 0.359375 1.25 0.359375q0.8125 0 1.203125 -0.328125q0.390625 -0.328125 0.390625 -0.765625q0 -0.390625 -0.359375 -0.625q-0.234375 -0.15625 -1.1875 -0.390625q-1.296875 -0.328125 -1.796875 -0.5625q-0.484375 -0.25 -0.75 -0.65625q-0.25 -0.421875 -0.25 -0.9375q0 -0.453125 0.203125 -0.84375q0.21875 -0.40625 0.578125 -0.671875q0.28125 -0.1875 0.75 -0.328125q0.46875 -0.140625 1.015625 -0.140625q0.8125 0 1.421875 0.234375q0.609375 0.234375 0.90625 0.640625q0.296875 0.390625 0.40625 1.0625l-1.140625 0.15625q-0.078125 -0.53125 -0.453125 -0.828125q-0.375 -0.3125 -1.0625 -0.3125q-0.8125 0 -1.15625 0.265625q-0.34375 0.265625 -0.34375 0.625q0 0.234375 0.140625 0.421875q0.15625 0.1875 0.453125 0.3125q0.171875 0.0625 1.03125 0.296875q1.25 0.328125 1.734375 0.546875q0.5 0.203125 0.78125 0.609375q0.28125 0.40625 0.28125 1.0q0 0.59375 -0.34375 1.109375q-0.34375 0.515625 -1.0 0.796875q-0.640625 0.28125 -1.453125 0.28125q-1.34375 0 -2.046875 -0.5625q-0.703125 -0.5625 -0.90625 -1.65625zm7.1171875 2.0625l0 -9.546875l1.171875 0l0 9.546875l-1.171875 0zm2.99234 -8.1875l0 -1.359375l1.171875 0l0 1.359375l-1.171875 0zm0 8.1875l0 -6.90625l1.171875 0l0 6.90625l-1.171875 0zm7.42984 0l0 -0.875q-0.65625 1.03125 -1.9375 1.03125q-0.8125 0 -1.515625 -0.453125q-0.6875 -0.453125 -1.078125 -1.265625q-0.375 -0.828125 -0.375 -1.890625q0 -1.03125 0.34375 -1.875q0.34375 -0.84375 1.03125 -1.28125q0.703125 -0.453125 1.546875 -0.453125q0.625 0 1.109375 0.265625q0.5 0.25 0.796875 0.671875l0 -3.421875l1.171875 0l0 9.546875l-1.09375 0zm-3.703125 -3.453125q0 1.328125 0.5625 1.984375q0.5625 0.65625 1.328125 0.65625q0.765625 0 1.296875 -0.625q0.53125 -0.625 0.53125 -1.90625q0 -1.421875 -0.546875 -2.078125q-0.546875 -0.671875 -1.34375 -0.671875q-0.78125 0 -1.3125 0.640625q-0.515625 0.625 -0.515625 2.0zm11.365601 1.234375l1.203125 0.140625q-0.28125 1.0625 -1.0625 1.65625q-0.765625 0.578125 -1.96875 0.578125q-1.515625 0 -2.40625 -0.9375q-0.890625 -0.9375 -0.890625 -2.609375q0 -1.75 0.890625 -2.703125q0.90625 -0.96875 2.34375 -0.96875q1.390625 0 2.265625 0.9375q0.875 0.9375 0.875 2.65625q0 0.109375 0 0.3125l-5.15625 0q0.0625 1.140625 0.640625 1.75q0.578125 0.59375 1.4375 0.59375q0.65625 0 1.109375 -0.328125q0.453125 -0.34375 0.71875 -1.078125zm-3.84375 -1.90625l3.859375 0q-0.078125 -0.859375 -0.4375 -1.296875q-0.5625 -0.6875 -1.453125 -0.6875q-0.8125 0 -1.359375 0.546875q-0.546875 0.53125 -0.609375 1.4375zm6.5062256 4.125l0 -6.90625l1.0625 0l0 1.046875q0.40625 -0.734375 0.734375 -0.96875q0.34375 -0.234375 0.765625 -0.234375q0.59375 0 1.203125 0.375l-0.40625 1.078125q-0.4375 -0.25 -0.859375 -0.25q-0.390625 0 -0.703125 0.234375q-0.296875 0.234375 -0.421875 0.640625q-0.203125 0.625 -0.203125 1.359375l0 3.625l-1.171875 0zm3.3758545 2.65625l0 -0.859375l7.765625 0l0 0.859375l-7.765625 0zm8.474976 -2.65625l0 -9.546875l1.171875 0l0 9.546875l-1.171875 0zm2.99234 -8.1875l0 -1.359375l1.171875 0l0 1.359375l-1.171875 0zm0 8.1875l0 -6.90625l1.171875 0l0 6.90625l-1.171875 0zm2.945465 0l0 -6.90625l1.0625 0l0 0.984375q0.75 -1.140625 2.1875 -1.140625q0.625 0 1.15625 0.21875q0.53125 0.21875 0.78125 0.59375q0.265625 0.359375 0.375 0.859375q0.0625 0.328125 0.0625 1.140625l0 4.25l-1.171875 0l0 -4.203125q0 -0.71875 -0.140625 -1.0625q-0.140625 -0.359375 -0.484375 -0.5625q-0.34375 -0.21875 -0.8125 -0.21875q-0.75 0 -1.296875 0.46875q-0.546875 0.46875 -0.546875 1.796875l0 3.78125l-1.171875 0zm7.4281006 0l0 -9.546875l1.171875 0l0 5.453125l2.765625 -2.8125l1.515625 0l-2.640625 2.5625l2.90625 4.34375l-1.4375 0l-2.28125 -3.53125l-0.828125 0.796875l0 2.734375l-1.171875 0zm6.9765625 0l0 -1.328125l1.34375 0l0 1.328125l-1.34375 0zm3.374878 -8.1875l0 -1.359375l1.171875 0l0 1.359375l-1.171875 0zm-1.484375 10.875l0.21875 -1.0q0.359375 0.09375 0.546875 0.09375q0.359375 0 0.53125 -0.25q0.1875 -0.234375 0.1875 -1.1875l0 -7.25l1.171875 0l0 7.28125q0 1.28125 -0.328125 1.78125q-0.4375 0.65625 -1.40625 0.65625q-0.484375 0 -0.921875 -0.125zm3.976715 -4.75l1.15625 -0.1875q0.109375 0.703125 0.546875 1.078125q0.453125 0.359375 1.25 0.359375q0.8125 0 1.203125 -0.328125q0.390625 -0.328125 0.390625 -0.765625q0 -0.390625 -0.359375 -0.625q-0.234375 -0.15625 -1.1875 -0.390625q-1.296875 -0.328125 -1.796875 -0.5625q-0.484375 -0.25 -0.75 -0.65625q-0.25 -0.421875 -0.25 -0.9375q0 -0.453125 0.203125 -0.84375q0.21875 -0.40625 0.578125 -0.671875q0.28125 -0.1875 0.75 -0.328125q0.46875 -0.140625 1.015625 -0.140625q0.8125 0 1.421875 0.234375q0.609375 0.234375 0.90625 0.640625q0.296875 0.390625 0.40625 1.0625l-1.140625 0.15625q-0.078125 -0.53125 -0.453125 -0.828125q-0.375 -0.3125 -1.0625 -0.3125q-0.8125 0 -1.15625 0.265625q-0.34375 0.265625 -0.34375 0.625q0 0.234375 0.140625 0.421875q0.15625 0.1875 0.453125 0.3125q0.171875 0.0625 1.03125 0.296875q1.25 0.328125 1.734375 0.546875q0.5 0.203125 0.78125 0.609375q0.28125 0.40625 0.28125 1.0q0 0.59375 -0.34375 1.109375q-0.34375 0.515625 -1.0 0.796875q-0.640625 0.28125 -1.453125 0.28125q-1.34375 0 -2.046875 -0.5625q-0.703125 -0.5625 -0.90625 -1.65625z" fill-rule="nonzero"/><path fill="#9fc5e8" d="m534.96326 228.71402l0 0c0 -3.0122528 2.4418945 -5.454178 5.4541626 -5.454178l136.9342 0c1.4465332 0 2.8338013 0.57463074 3.8566895 1.5974884c1.0228271 1.0228577 1.5974731 2.4101562 1.5974731 3.8566895l0 21.816055c0 3.0122528 -2.4419556 5.454178 -5.4541626 5.454178l-136.9342 0c-3.012268 0 -5.4541626 -2.441925 -5.4541626 -5.454178z" fill-rule="evenodd"/><path stroke="#595959" stroke-width="1.0" stroke-linejoin="round" stroke-linecap="butt" d="m534.96326 228.71402l0 0c0 -3.0122528 2.4418945 -5.454178 5.4541626 -5.454178l136.9342 0c1.4465332 0 2.8338013 0.57463074 3.8566895 1.5974884c1.0228271 1.0228577 1.5974731 2.4101562 1.5974731 3.8566895l0 21.816055c0 3.0122528 -2.4419556 5.454178 -5.4541626 5.454178l-136.9342 0c-3.012268 0 -5.4541626 -2.441925 -5.4541626 -5.454178z" fill-rule="evenodd"/><path fill="#000000" fill-opacity="0.0" d="m562.35693 219.85301l108.0 0l0 35.559067l-108.0 0z" fill-rule="evenodd"/><path fill="#000000" d="m576.74756 239.12177l1.15625 0.15625q-0.1875 1.1875 -0.96875 1.859375q-0.78125 0.671875 -1.921875 0.671875q-1.40625 0 -2.28125 -0.921875q-0.859375 -0.9375 -0.859375 -2.65625q0 -1.125 0.375 -1.96875q0.375 -0.84375 1.125 -1.25q0.765625 -0.421875 1.65625 -0.421875q1.125 0 1.84375 0.578125q0.71875 0.5625 0.921875 1.609375l-1.140625 0.171875q-0.171875 -0.703125 -0.59375 -1.046875q-0.40625 -0.359375 -0.984375 -0.359375q-0.890625 0 -1.453125 0.640625q-0.546875 0.640625 -0.546875 2.0q0 1.40625 0.53125 2.03125q0.546875 0.625 1.40625 0.625q0.6875 0 1.140625 -0.421875q0.46875 -0.421875 0.59375 -1.296875zm2.1328125 2.53125l0 -6.90625l1.0625 0l0 1.046875q0.40625 -0.734375 0.734375 -0.96875q0.34375 -0.234375 0.765625 -0.234375q0.59375 0 1.203125 0.375l-0.40625 1.078125q-0.4375 -0.25 -0.859375 -0.25q-0.390625 0 -0.703125 0.234375q-0.296875 0.234375 -0.421875 0.640625q-0.203125 0.625 -0.203125 1.359375l0 3.625l-1.171875 0zm9.188416 -2.21875l1.203125 0.140625q-0.28125 1.0625 -1.0625 1.65625q-0.765625 0.578125 -1.96875 0.578125q-1.515625 0 -2.40625 -0.9375q-0.890625 -0.9375 -0.890625 -2.609375q0 -1.75 0.890625 -2.703125q0.90625 -0.96875 2.34375 -0.96875q1.390625 0 2.265625 0.9375q0.875 0.9375 0.875 2.65625q0 0.109375 0 0.3125l-5.15625 0q0.0625 1.140625 0.640625 1.75q0.578125 0.59375 1.4375 0.59375q0.65625 0 1.109375 -0.328125q0.453125 -0.34375 0.71875 -1.078125zm-3.84375 -1.90625l3.859375 0q-0.078125 -0.859375 -0.4375 -1.296875q-0.5625 -0.6875 -1.453125 -0.6875q-0.8125 0 -1.359375 0.546875q-0.546875 0.53125 -0.609375 1.4375zm11.037476 3.265625q-0.65625 0.5625 -1.265625 0.796875q-0.59375 0.21875 -1.28125 0.21875q-1.140625 0 -1.75 -0.546875q-0.609375 -0.5625 -0.609375 -1.4375q0 -0.5 0.21875 -0.921875q0.234375 -0.421875 0.609375 -0.671875q0.375 -0.25 0.84375 -0.390625q0.34375 -0.078125 1.046875 -0.171875q1.421875 -0.171875 2.09375 -0.40625q0 -0.234375 0 -0.296875q0 -0.71875 -0.328125 -1.015625q-0.453125 -0.390625 -1.34375 -0.390625q-0.8125 0 -1.21875 0.296875q-0.390625 0.28125 -0.578125 1.015625l-1.140625 -0.15625q0.15625 -0.734375 0.515625 -1.1875q0.359375 -0.453125 1.03125 -0.6875q0.671875 -0.25 1.5625 -0.25q0.890625 0 1.4375 0.203125q0.5625 0.203125 0.8125 0.53125q0.265625 0.3125 0.375 0.796875q0.046875 0.296875 0.046875 1.078125l0 1.5625q0 1.625 0.078125 2.0625q0.078125 0.4375 0.296875 0.828125l-1.21875 0q-0.1875 -0.359375 -0.234375 -0.859375zm-0.09375 -2.609375q-0.640625 0.265625 -1.921875 0.4375q-0.71875 0.109375 -1.015625 0.25q-0.296875 0.125 -0.46875 0.375q-0.15625 0.25 -0.15625 0.546875q0 0.46875 0.34375 0.78125q0.359375 0.3125 1.046875 0.3125q0.671875 0 1.203125 -0.296875q0.53125 -0.296875 0.78125 -0.8125q0.1875 -0.390625 0.1875 -1.171875l0 -0.421875zm5.5531006 2.421875l0.171875 1.03125q-0.5 0.109375 -0.890625 0.109375q-0.640625 0 -1.0 -0.203125q-0.34375 -0.203125 -0.484375 -0.53125q-0.140625 -0.328125 -0.140625 -1.390625l0 -3.96875l-0.859375 0l0 -0.90625l0.859375 0l0 -1.71875l1.171875 -0.703125l0 2.421875l1.171875 0l0 0.90625l-1.171875 0l0 4.046875q0 0.5 0.046875 0.640625q0.0625 0.140625 0.203125 0.234375q0.140625 0.078125 0.40625 0.078125q0.203125 0 0.515625 -0.046875zm1.1560669 -7.140625l0 -1.359375l1.171875 0l0 1.359375l-1.171875 0zm0 8.1875l0 -6.90625l1.171875 0l0 6.90625l-1.171875 0zm2.5079956 -3.453125q0 -1.921875 1.078125 -2.84375q0.890625 -0.765625 2.171875 -0.765625q1.421875 0 2.328125 0.9375q0.90625 0.921875 0.90625 2.578125q0 1.328125 -0.40625 2.09375q-0.390625 0.765625 -1.15625 1.1875q-0.765625 0.421875 -1.671875 0.421875q-1.453125 0 -2.359375 -0.921875q-0.890625 -0.9375 -0.890625 -2.6875zm1.203125 0q0 1.328125 0.578125 1.984375q0.59375 0.65625 1.46875 0.65625q0.875 0 1.453125 -0.65625q0.578125 -0.671875 0.578125 -2.03125q0 -1.28125 -0.59375 -1.9375q-0.578125 -0.65625 -1.4375 -0.65625q-0.875 0 -1.46875 0.65625q-0.578125 0.65625 -0.578125 1.984375zm6.6468506 3.453125l0 -6.90625l1.0625 0l0 0.984375q0.75 -1.140625 2.1875 -1.140625q0.625 0 1.15625 0.21875q0.53125 0.21875 0.78125 0.59375q0.265625 0.359375 0.375 0.859375q0.0625 0.328125 0.0625 1.140625l0 4.25l-1.171875 0l0 -4.203125q0 -0.71875 -0.140625 -1.0625q-0.140625 -0.359375 -0.484375 -0.5625q-0.34375 -0.21875 -0.8125 -0.21875q-0.75 0 -1.296875 0.46875q-0.546875 0.46875 -0.546875 1.796875l0 3.78125l-1.171875 0zm7.7406006 0l0 -1.328125l1.34375 0l0 1.328125l-1.34375 0zm3.374878 0l0 -9.546875l1.171875 0l0 3.421875q0.828125 -0.9375 2.078125 -0.9375q0.765625 0 1.328125 0.296875q0.5625 0.296875 0.8125 0.84375q0.25 0.53125 0.25 1.546875l0 4.375l-1.171875 0l0 -4.375q0 -0.890625 -0.390625 -1.28125q-0.375 -0.40625 -1.078125 -0.40625q-0.515625 0 -0.984375 0.28125q-0.453125 0.265625 -0.65625 0.734375q-0.1875 0.453125 -0.1875 1.265625l0 3.78125l-1.171875 0zm9.974976 -1.046875l0.171875 1.03125q-0.5 0.109375 -0.890625 0.109375q-0.640625 0 -1.0 -0.203125q-0.34375 -0.203125 -0.484375 -0.53125q-0.140625 -0.328125 -0.140625 -1.390625l0 -3.96875l-0.859375 0l0 -0.90625l0.859375 0l0 -1.71875l1.171875 -0.703125l0 2.421875l1.171875 0l0 0.90625l-1.171875 0l0 4.046875q0 0.5 0.046875 0.640625q0.0625 0.140625 0.203125 0.234375q0.140625 0.078125 0.40625 0.078125q0.203125 0 0.515625 -0.046875zm1.1404419 1.046875l0 -6.90625l1.046875 0l0 0.96875q0.328125 -0.515625 0.859375 -0.8125q0.546875 -0.3125 1.234375 -0.3125q0.78125 0 1.265625 0.3125q0.484375 0.3125 0.6875 0.890625q0.828125 -1.203125 2.140625 -1.203125q1.03125 0 1.578125 0.578125q0.5625 0.5625 0.5625 1.734375l0 4.75l-1.171875 0l0 -4.359375q0 -0.703125 -0.125 -1.0q-0.109375 -0.3125 -0.40625 -0.5q-0.296875 -0.1875 -0.703125 -0.1875q-0.71875 0 -1.203125 0.484375q-0.484375 0.484375 -0.484375 1.546875l0 4.015625l-1.171875 0l0 -4.484375q0 -0.78125 -0.296875 -1.171875q-0.28125 -0.390625 -0.921875 -0.390625q-0.5 0 -0.921875 0.265625q-0.421875 0.25 -0.609375 0.75q-0.1875 0.5 -0.1875 1.453125l0 3.578125l-1.171875 0zm11.086853 0l0 -9.546875l1.171875 0l0 9.546875l-1.171875 0z" fill-rule="nonzero"/><path fill="#9fc5e8" d="m534.96326 284.71402l0 0c0 -3.012268 2.4418945 -5.4541626 5.4541626 -5.4541626l136.9342 0c1.4465332 0 2.8338013 0.5746155 3.8566895 1.5974731c1.0228271 1.0228577 1.5974731 2.4101562 1.5974731 3.8566895l0 21.81604c0 3.012268 -2.4419556 5.454193 -5.4541626 5.454193l-136.9342 0c-3.012268 0 -5.4541626 -2.441925 -5.4541626 -5.454193z" fill-rule="evenodd"/><path stroke="#595959" stroke-width="1.0" stroke-linejoin="round" stroke-linecap="butt" d="m534.96326 284.71402l0 0c0 -3.012268 2.4418945 -5.4541626 5.4541626 -5.4541626l136.9342 0c1.4465332 0 2.8338013 0.5746155 3.8566895 1.5974731c1.0228271 1.0228577 1.5974731 2.4101562 1.5974731 3.8566895l0 21.81604c0 3.012268 -2.4419556 5.454193 -5.4541626 5.454193l-136.9342 0c-3.012268 0 -5.4541626 -2.441925 -5.4541626 -5.454193z" fill-rule="evenodd"/><path fill="#000000" fill-opacity="0.0" d="m557.4803 275.85303l118.36224 0l0 35.55905l-118.36224 0z" fill-rule="evenodd"/><path fill="#000000" d="m571.83966 297.653l0 -0.875q-0.65625 1.03125 -1.9375 1.03125q-0.8125 0 -1.515625 -0.453125q-0.6875 -0.453125 -1.078125 -1.265625q-0.375 -0.828125 -0.375 -1.890625q0 -1.03125 0.34375 -1.875q0.34375 -0.84375 1.03125 -1.28125q0.703125 -0.453125 1.546875 -0.453125q0.625 0 1.109375 0.265625q0.5 0.25 0.796875 0.671875l0 -3.421875l1.171875 0l0 9.546875l-1.09375 0zm-3.703125 -3.453125q0 1.328125 0.5625 1.984375q0.5625 0.65625 1.328125 0.65625q0.765625 0 1.296875 -0.625q0.53125 -0.625 0.53125 -1.90625q0 -1.421875 -0.546875 -2.078125q-0.546875 -0.671875 -1.34375 -0.671875q-0.78125 0 -1.3125 0.640625q-0.515625 0.625 -0.515625 2.0zm11.365601 1.234375l1.203125 0.140625q-0.28125 1.0625 -1.0625 1.65625q-0.765625 0.578125 -1.96875 0.578125q-1.515625 0 -2.40625 -0.9375q-0.890625 -0.9375 -0.890625 -2.609375q0 -1.75 0.890625 -2.703125q0.90625 -0.96875 2.34375 -0.96875q1.390625 0 2.265625 0.9375q0.875 0.9375 0.875 2.65625q0 0.109375 0 0.3125l-5.15625 0q0.0625 1.140625 0.640625 1.75q0.578125 0.59375 1.4375 0.59375q0.65625 0 1.109375 -0.328125q0.453125 -0.34375 0.71875 -1.078125zm-3.84375 -1.90625l3.859375 0q-0.078125 -0.859375 -0.4375 -1.296875q-0.5625 -0.6875 -1.453125 -0.6875q-0.8125 0 -1.359375 0.546875q-0.546875 0.53125 -0.609375 1.4375zm6.5062256 4.125l0 -9.546875l1.171875 0l0 9.546875l-1.171875 0zm7.7111206 -2.21875l1.203125 0.140625q-0.28125 1.0625 -1.0625 1.65625q-0.765625 0.578125 -1.96875 0.578125q-1.515625 0 -2.40625 -0.9375q-0.890625 -0.9375 -0.890625 -2.609375q0 -1.75 0.890625 -2.703125q0.90625 -0.96875 2.34375 -0.96875q1.390625 0 2.265625 0.9375q0.875 0.9375 0.875 2.65625q0 0.109375 0 0.3125l-5.15625 0q0.0625 1.140625 0.640625 1.75q0.578125 0.59375 1.4375 0.59375q0.65625 0 1.109375 -0.328125q0.453125 -0.34375 0.71875 -1.078125zm-3.84375 -1.90625l3.859375 0q-0.078125 -0.859375 -0.4375 -1.296875q-0.5625 -0.6875 -1.453125 -0.6875q-0.8125 0 -1.359375 0.546875q-0.546875 0.53125 -0.609375 1.4375zm9.084351 3.078125l0.171875 1.03125q-0.5 0.109375 -0.890625 0.109375q-0.640625 0 -1.0 -0.203125q-0.34375 -0.203125 -0.484375 -0.53125q-0.140625 -0.328125 -0.140625 -1.390625l0 -3.96875l-0.859375 0l0 -0.90625l0.859375 0l0 -1.71875l1.171875 -0.703125l0 2.421875l1.171875 0l0 0.90625l-1.171875 0l0 4.046875q0 0.5 0.046875 0.640625q0.0625 0.140625 0.203125 0.234375q0.140625 0.078125 0.40625 0.078125q0.203125 0 0.515625 -0.046875zm5.874878 -1.171875l1.203125 0.140625q-0.28125 1.0625 -1.0625 1.65625q-0.765625 0.578125 -1.96875 0.578125q-1.515625 0 -2.40625 -0.9375q-0.890625 -0.9375 -0.890625 -2.609375q0 -1.75 0.890625 -2.703125q0.90625 -0.96875 2.34375 -0.96875q1.390625 0 2.265625 0.9375q0.875 0.9375 0.875 2.65625q0 0.109375 0 0.3125l-5.15625 0q0.0625 1.140625 0.640625 1.75q0.578125 0.59375 1.4375 0.59375q0.65625 0 1.109375 -0.328125q0.453125 -0.34375 0.71875 -1.078125zm-3.84375 -1.90625l3.859375 0q-0.078125 -0.859375 -0.4375 -1.296875q-0.5625 -0.6875 -1.453125 -0.6875q-0.8125 0 -1.359375 0.546875q-0.546875 0.53125 -0.609375 1.4375zm5.4437256 6.78125l0 -0.859375l7.765625 0l0 0.859375l-7.765625 0zm8.474976 -2.65625l0 -9.546875l1.171875 0l0 9.546875l-1.171875 0zm2.9923096 -8.1875l0 -1.359375l1.171875 0l0 1.359375l-1.171875 0zm0 8.1875l0 -6.90625l1.171875 0l0 6.90625l-1.171875 0zm2.9454956 0l0 -6.90625l1.0625 0l0 0.984375q0.75 -1.140625 2.1875 -1.140625q0.625 0 1.15625 0.21875q0.53125 0.21875 0.78125 0.59375q0.265625 0.359375 0.375 0.859375q0.0625 0.328125 0.0625 1.140625l0 4.25l-1.171875 0l0 -4.203125q0 -0.71875 -0.140625 -1.0625q-0.140625 -0.359375 -0.484375 -0.5625q-0.34375 -0.21875 -0.8125 -0.21875q-0.75 0 -1.296875 0.46875q-0.546875 0.46875 -0.546875 1.796875l0 3.78125l-1.171875 0zm7.4281006 0l0 -9.546875l1.171875 0l0 5.453125l2.765625 -2.8125l1.515625 0l-2.640625 2.5625l2.90625 4.34375l-1.4375 0l-2.28125 -3.53125l-0.828125 0.796875l0 2.734375l-1.171875 0zm6.9765625 0l0 -1.328125l1.34375 0l0 1.328125l-1.34375 0zm3.374817 0l0 -9.546875l1.171875 0l0 3.421875q0.828125 -0.9375 2.078125 -0.9375q0.765625 0 1.328125 0.296875q0.5625 0.296875 0.8125 0.84375q0.25 0.53125 0.25 1.546875l0 4.375l-1.171875 0l0 -4.375q0 -0.890625 -0.390625 -1.28125q-0.375 -0.40625 -1.078125 -0.40625q-0.515625 0 -0.984375 0.28125q-0.453125 0.265625 -0.65625 0.734375q-0.1875 0.453125 -0.1875 1.265625l0 3.78125l-1.171875 0zm9.974976 -1.046875l0.171875 1.03125q-0.5 0.109375 -0.890625 0.109375q-0.640625 0 -1.0 -0.203125q-0.34375 -0.203125 -0.484375 -0.53125q-0.140625 -0.328125 -0.140625 -1.390625l0 -3.96875l-0.859375 0l0 -0.90625l0.859375 0l0 -1.71875l1.171875 -0.703125l0 2.421875l1.171875 0l0 0.90625l-1.171875 0l0 4.046875q0 0.5 0.046875 0.640625q0.0625 0.140625 0.203125 0.234375q0.140625 0.078125 0.40625 0.078125q0.203125 0 0.515625 -0.046875zm1.1405029 1.046875l0 -6.90625l1.046875 0l0 0.96875q0.328125 -0.515625 0.859375 -0.8125q0.546875 -0.3125 1.234375 -0.3125q0.78125 0 1.265625 0.3125q0.484375 0.3125 0.6875 0.890625q0.828125 -1.203125 2.140625 -1.203125q1.03125 0 1.578125 0.578125q0.5625 0.5625 0.5625 1.734375l0 4.75l-1.171875 0l0 -4.359375q0 -0.703125 -0.125 -1.0q-0.109375 -0.3125 -0.40625 -0.5q-0.296875 -0.1875 -0.703125 -0.1875q-0.71875 0 -1.203125 0.484375q-0.484375 0.484375 -0.484375 1.546875l0 4.015625l-1.171875 0l0 -4.484375q0 -0.78125 -0.296875 -1.171875q-0.28125 -0.390625 -0.921875 -0.390625q-0.5 0 -0.921875 0.265625q-0.421875 0.25 -0.609375 0.75q-0.1875 0.5 -0.1875 1.453125l0 3.578125l-1.171875 0zm11.086792 0l0 -9.546875l1.171875 0l0 9.546875l-1.171875 0z" fill-rule="nonzero"/><path fill="#9fc5e8" d="m726.96326 228.71402l0 0c0 -3.0122528 2.4418945 -5.454178 5.4541626 -5.454178l136.9342 0c1.4465332 0 2.8338013 0.57463074 3.8566895 1.5974884c1.0228271 1.0228577 1.5974731 2.4101562 1.5974731 3.8566895l0 21.816055c0 3.0122528 -2.4419556 5.454178 -5.4541626 5.454178l-136.9342 0c-3.012268 0 -5.4541626 -2.441925 -5.4541626 -5.454178z" fill-rule="evenodd"/><path stroke="#595959" stroke-width="1.0" stroke-linejoin="round" stroke-linecap="butt" d="m726.96326 228.71402l0 0c0 -3.0122528 2.4418945 -5.454178 5.4541626 -5.454178l136.9342 0c1.4465332 0 2.8338013 0.57463074 3.8566895 1.5974884c1.0228271 1.0228577 1.5974731 2.4101562 1.5974731 3.8566895l0 21.816055c0 3.0122528 -2.4419556 5.454178 -5.4541626 5.454178l-136.9342 0c-3.012268 0 -5.4541626 -2.441925 -5.4541626 -5.454178z" fill-rule="evenodd"/><path fill="#000000" fill-opacity="0.0" d="m724.2782 219.85301l161.51184 0l0 35.559067l-161.51184 0z" fill-rule="evenodd"/><path fill="#000000" d="m738.6688 239.12177l1.15625 0.15625q-0.1875 1.1875 -0.96875 1.859375q-0.78125 0.671875 -1.921875 0.671875q-1.40625 0 -2.28125 -0.921875q-0.859375 -0.9375 -0.859375 -2.65625q0 -1.125 0.375 -1.96875q0.375 -0.84375 1.125 -1.25q0.765625 -0.421875 1.65625 -0.421875q1.125 0 1.84375 0.578125q0.71875 0.5625 0.921875 1.609375l-1.140625 0.171875q-0.171875 -0.703125 -0.59375 -1.046875q-0.40625 -0.359375 -0.984375 -0.359375q-0.890625 0 -1.453125 0.640625q-0.546875 0.640625 -0.546875 2.0q0 1.40625 0.53125 2.03125q0.546875 0.625 1.40625 0.625q0.6875 0 1.140625 -0.421875q0.46875 -0.421875 0.59375 -1.296875zm2.1484375 2.53125l0 -9.546875l1.171875 0l0 3.421875q0.828125 -0.9375 2.078125 -0.9375q0.765625 0 1.328125 0.296875q0.5625 0.296875 0.8125 0.84375q0.25 0.53125 0.25 1.546875l0 4.375l-1.171875 0l0 -4.375q0 -0.890625 -0.390625 -1.28125q-0.375 -0.40625 -1.078125 -0.40625q-0.515625 0 -0.984375 0.28125q-0.453125 0.265625 -0.65625 0.734375q-0.1875 0.453125 -0.1875 1.265625l0 3.78125l-1.171875 0zm11.928101 -0.859375q-0.65625 0.5625 -1.265625 0.796875q-0.59375 0.21875 -1.28125 0.21875q-1.140625 0 -1.75 -0.546875q-0.609375 -0.5625 -0.609375 -1.4375q0 -0.5 0.21875 -0.921875q0.234375 -0.421875 0.609375 -0.671875q0.375 -0.25 0.84375 -0.390625q0.34375 -0.078125 1.046875 -0.171875q1.421875 -0.171875 2.09375 -0.40625q0 -0.234375 0 -0.296875q0 -0.71875 -0.328125 -1.015625q-0.453125 -0.390625 -1.34375 -0.390625q-0.8125 0 -1.21875 0.296875q-0.390625 0.28125 -0.578125 1.015625l-1.140625 -0.15625q0.15625 -0.734375 0.515625 -1.1875q0.359375 -0.453125 1.03125 -0.6875q0.671875 -0.25 1.5625 -0.25q0.890625 0 1.4375 0.203125q0.5625 0.203125 0.8125 0.53125q0.265625 0.3125 0.375 0.796875q0.046875 0.296875 0.046875 1.078125l0 1.5625q0 1.625 0.078125 2.0625q0.078125 0.4375 0.296875 0.828125l-1.21875 0q-0.1875 -0.359375 -0.234375 -0.859375zm-0.09375 -2.609375q-0.640625 0.265625 -1.921875 0.4375q-0.71875 0.109375 -1.015625 0.25q-0.296875 0.125 -0.46875 0.375q-0.15625 0.25 -0.15625 0.546875q0 0.46875 0.34375 0.78125q0.359375 0.3125 1.046875 0.3125q0.671875 0 1.203125 -0.296875q0.53125 -0.296875 0.78125 -0.8125q0.1875 -0.390625 0.1875 -1.171875l0 -0.421875zm2.9906006 3.46875l0 -6.90625l1.0625 0l0 0.984375q0.75 -1.140625 2.1875 -1.140625q0.625 0 1.15625 0.21875q0.53125 0.21875 0.78125 0.59375q0.265625 0.359375 0.375 0.859375q0.0625 0.328125 0.0625 1.140625l0 4.25l-1.171875 0l0 -4.203125q0 -0.71875 -0.140625 -1.0625q-0.140625 -0.359375 -0.484375 -0.5625q-0.34375 -0.21875 -0.8125 -0.21875q-0.75 0 -1.296875 0.46875q-0.546875 0.46875 -0.546875 1.796875l0 3.78125l-1.171875 0zm7.1937256 0.578125l1.140625 0.15625q0.078125 0.53125 0.40625 0.78125q0.4375 0.3125 1.1875 0.3125q0.8125 0 1.25 -0.328125q0.453125 -0.3125 0.609375 -0.90625q0.09375 -0.359375 0.078125 -1.5q-0.765625 0.90625 -1.90625 0.90625q-1.4375 0 -2.21875 -1.03125q-0.78125 -1.03125 -0.78125 -2.46875q0 -0.984375 0.359375 -1.8125q0.359375 -0.84375 1.03125 -1.296875q0.6875 -0.453125 1.609375 -0.453125q1.21875 0 2.015625 0.984375l0 -0.828125l1.078125 0l0 5.96875q0 1.609375 -0.328125 2.28125q-0.328125 0.6875 -1.046875 1.078125q-0.703125 0.390625 -1.75 0.390625q-1.234375 0 -2.0 -0.5625q-0.75 -0.5625 -0.734375 -1.671875zm0.984375 -4.15625q0 1.359375 0.53125 1.984375q0.546875 0.625 1.359375 0.625q0.796875 0 1.34375 -0.625q0.546875 -0.625 0.546875 -1.953125q0 -1.265625 -0.5625 -1.90625q-0.5625 -0.640625 -1.359375 -0.640625q-0.765625 0 -1.3125 0.640625q-0.546875 0.625 -0.546875 1.875zm11.381226 1.359375l1.203125 0.140625q-0.28125 1.0625 -1.0625 1.65625q-0.765625 0.578125 -1.96875 0.578125q-1.515625 0 -2.40625 -0.9375q-0.890625 -0.9375 -0.890625 -2.609375q0 -1.75 0.890625 -2.703125q0.90625 -0.96875 2.34375 -0.96875q1.390625 0 2.265625 0.9375q0.875 0.9375 0.875 2.65625q0 0.109375 0 0.3125l-5.15625 0q0.0625 1.140625 0.640625 1.75q0.578125 0.59375 1.4375 0.59375q0.65625 0 1.109375 -0.328125q0.453125 -0.34375 0.71875 -1.078125zm-3.84375 -1.90625l3.859375 0q-0.078125 -0.859375 -0.4375 -1.296875q-0.5625 -0.6875 -1.453125 -0.6875q-0.8125 0 -1.359375 0.546875q-0.546875 0.53125 -0.609375 1.4375zm5.4437256 6.78125l0 -0.859375l7.765625 0l0 0.859375l-7.765625 0zm12.974976 -2.65625l0 -0.875q-0.65625 1.03125 -1.9375 1.03125q-0.8125 0 -1.515625 -0.453125q-0.6875 -0.453125 -1.078125 -1.265625q-0.375 -0.828125 -0.375 -1.890625q0 -1.03125 0.34375 -1.875q0.34375 -0.84375 1.03125 -1.28125q0.703125 -0.453125 1.546875 -0.453125q0.625 0 1.109375 0.265625q0.5 0.25 0.796875 0.671875l0 -3.421875l1.171875 0l0 9.546875l-1.09375 0zm-3.703125 -3.453125q0 1.328125 0.5625 1.984375q0.5625 0.65625 1.328125 0.65625q0.765625 0 1.296875 -0.625q0.53125 -0.625 0.53125 -1.90625q0 -1.421875 -0.546875 -2.078125q-0.546875 -0.671875 -1.34375 -0.671875q-0.78125 0 -1.3125 0.640625q-0.515625 0.625 -0.515625 2.0zm6.6468506 -4.734375l0 -1.359375l1.171875 0l0 1.359375l-1.171875 0zm0 8.1875l0 -6.90625l1.171875 0l0 6.90625l-1.171875 0zm2.9298706 0l0 -6.90625l1.0625 0l0 1.046875q0.40625 -0.734375 0.734375 -0.96875q0.34375 -0.234375 0.765625 -0.234375q0.59375 0 1.203125 0.375l-0.40625 1.078125q-0.4375 -0.25 -0.859375 -0.25q-0.390625 0 -0.703125 0.234375q-0.296875 0.234375 -0.421875 0.640625q-0.203125 0.625 -0.203125 1.359375l0 3.625l-1.171875 0zm9.1883545 -2.21875l1.203125 0.140625q-0.28125 1.0625 -1.0625 1.65625q-0.765625 0.578125 -1.96875 0.578125q-1.515625 0 -2.40625 -0.9375q-0.890625 -0.9375 -0.890625 -2.609375q0 -1.75 0.890625 -2.703125q0.90625 -0.96875 2.34375 -0.96875q1.390625 0 2.265625 0.9375q0.875 0.9375 0.875 2.65625q0 0.109375 0 0.3125l-5.15625 0q0.0625 1.140625 0.640625 1.75q0.578125 0.59375 1.4375 0.59375q0.65625 0 1.109375 -0.328125q0.453125 -0.34375 0.71875 -1.078125zm-3.84375 -1.90625l3.859375 0q-0.078125 -0.859375 -0.4375 -1.296875q-0.5625 -0.6875 -1.453125 -0.6875q-0.8125 0 -1.359375 0.546875q-0.546875 0.53125 -0.609375 1.4375zm11.037476 1.59375l1.15625 0.15625q-0.1875 1.1875 -0.96875 1.859375q-0.78125 0.671875 -1.921875 0.671875q-1.40625 0 -2.28125 -0.921875q-0.859375 -0.9375 -0.859375 -2.65625q0 -1.125 0.375 -1.96875q0.375 -0.84375 1.125 -1.25q0.765625 -0.421875 1.65625 -0.421875q1.125 0 1.84375 0.578125q0.71875 0.5625 0.921875 1.609375l-1.140625 0.171875q-0.171875 -0.703125 -0.59375 -1.046875q-0.40625 -0.359375 -0.984375 -0.359375q-0.890625 0 -1.453125 0.640625q-0.546875 0.640625 -0.546875 2.0q0 1.40625 0.53125 2.03125q0.546875 0.625 1.40625 0.625q0.6875 0 1.140625 -0.421875q0.46875 -0.421875 0.59375 -1.296875zm4.7109375 1.484375l0.171875 1.03125q-0.5 0.109375 -0.890625 0.109375q-0.640625 0 -1.0 -0.203125q-0.34375 -0.203125 -0.484375 -0.53125q-0.140625 -0.328125 -0.140625 -1.390625l0 -3.96875l-0.859375 0l0 -0.90625l0.859375 0l0 -1.71875l1.171875 -0.703125l0 2.421875l1.171875 0l0 0.90625l-1.171875 0l0 4.046875q0 0.5 0.046875 0.640625q0.0625 0.140625 0.203125 0.234375q0.140625 0.078125 0.40625 0.078125q0.203125 0 0.515625 -0.046875zm1.1561279 -7.140625l0 -1.359375l1.171875 0l0 1.359375l-1.171875 0zm0 8.1875l0 -6.90625l1.171875 0l0 6.90625l-1.171875 0zm2.5079346 -3.453125q0 -1.921875 1.078125 -2.84375q0.890625 -0.765625 2.171875 -0.765625q1.421875 0 2.328125 0.9375q0.90625 0.921875 0.90625 2.578125q0 1.328125 -0.40625 2.09375q-0.390625 0.765625 -1.15625 1.1875q-0.765625 0.421875 -1.671875 0.421875q-1.453125 0 -2.359375 -0.921875q-0.890625 -0.9375 -0.890625 -2.6875zm1.203125 0q0 1.328125 0.578125 1.984375q0.59375 0.65625 1.46875 0.65625q0.875 0 1.453125 -0.65625q0.578125 -0.671875 0.578125 -2.03125q0 -1.28125 -0.59375 -1.9375q-0.578125 -0.65625 -1.4375 -0.65625q-0.875 0 -1.46875 0.65625q-0.578125 0.65625 -0.578125 1.984375zm6.6468506 3.453125l0 -6.90625l1.0625 0l0 0.984375q0.75 -1.140625 2.1875 -1.140625q0.625 0 1.15625 0.21875q0.53125 0.21875 0.78125 0.59375q0.265625 0.359375 0.375 0.859375q0.0625 0.328125 0.0625 1.140625l0 4.25l-1.171875 0l0 -4.203125q0 -0.71875 -0.140625 -1.0625q-0.140625 -0.359375 -0.484375 -0.5625q-0.34375 -0.21875 -0.8125 -0.21875q-0.75 0 -1.296875 0.46875q-0.546875 0.46875 -0.546875 1.796875l0 3.78125l-1.171875 0zm7.7406006 0l0 -1.328125l1.34375 0l0 1.328125l-1.34375 0zm3.374878 0l0 -9.546875l1.171875 0l0 3.421875q0.828125 -0.9375 2.078125 -0.9375q0.765625 0 1.328125 0.296875q0.5625 0.296875 0.8125 0.84375q0.25 0.53125 0.25 1.546875l0 4.375l-1.171875 0l0 -4.375q0 -0.890625 -0.390625 -1.28125q-0.375 -0.40625 -1.078125 -0.40625q-0.515625 0 -0.984375 0.28125q-0.453125 0.265625 -0.65625 0.734375q-0.1875 0.453125 -0.1875 1.265625l0 3.78125l-1.171875 0zm9.974976 -1.046875l0.171875 1.03125q-0.5 0.109375 -0.890625 0.109375q-0.640625 0 -1.0 -0.203125q-0.34375 -0.203125 -0.484375 -0.53125q-0.140625 -0.328125 -0.140625 -1.390625l0 -3.96875l-0.859375 0l0 -0.90625l0.859375 0l0 -1.71875l1.171875 -0.703125l0 2.421875l1.171875 0l0 0.90625l-1.171875 0l0 4.046875q0 0.5 0.046875 0.640625q0.0625 0.140625 0.203125 0.234375q0.140625 0.078125 0.40625 0.078125q0.203125 0 0.515625 -0.046875zm1.1405029 1.046875l0 -6.90625l1.046875 0l0 0.96875q0.328125 -0.515625 0.859375 -0.8125q0.546875 -0.3125 1.234375 -0.3125q0.78125 0 1.265625 0.3125q0.484375 0.3125 0.6875 0.890625q0.828125 -1.203125 2.140625 -1.203125q1.03125 0 1.578125 0.578125q0.5625 0.5625 0.5625 1.734375l0 4.75l-1.171875 0l0 -4.359375q0 -0.703125 -0.125 -1.0q-0.109375 -0.3125 -0.40625 -0.5q-0.296875 -0.1875 -0.703125 -0.1875q-0.71875 0 -1.203125 0.484375q-0.484375 0.484375 -0.484375 1.546875l0 4.015625l-1.171875 0l0 -4.484375q0 -0.78125 -0.296875 -1.171875q-0.28125 -0.390625 -0.921875 -0.390625q-0.5 0 -0.921875 0.265625q-0.421875 0.25 -0.609375 0.75q-0.1875 0.5 -0.1875 1.453125l0 3.578125l-1.171875 0zm11.086792 0l0 -9.546875l1.171875 0l0 9.546875l-1.171875 0z" fill-rule="nonzero"/><path fill="#9fc5e8" d="m726.96326 284.71402l0 0c0 -3.012268 2.4418945 -5.4541626 5.4541626 -5.4541626l136.9342 0c1.4465332 0 2.8338013 0.5746155 3.8566895 1.5974731c1.0228271 1.0228577 1.5974731 2.4101562 1.5974731 3.8566895l0 21.81604c0 3.012268 -2.4419556 5.454193 -5.4541626 5.454193l-136.9342 0c-3.012268 0 -5.4541626 -2.441925 -5.4541626 -5.454193z" fill-rule="evenodd"/><path stroke="#595959" stroke-width="1.0" stroke-linejoin="round" stroke-linecap="butt" d="m726.96326 284.71402l0 0c0 -3.012268 2.4418945 -5.4541626 5.4541626 -5.4541626l136.9342 0c1.4465332 0 2.8338013 0.5746155 3.8566895 1.5974731c1.0228271 1.0228577 1.5974731 2.4101562 1.5974731 3.8566895l0 21.81604c0 3.012268 -2.4419556 5.454193 -5.4541626 5.454193l-136.9342 0c-3.012268 0 -5.4541626 -2.441925 -5.4541626 -5.454193z" fill-rule="evenodd"/><path fill="#000000" fill-opacity="0.0" d="m743.8373 275.85303l130.96063 0l0 35.55905l-130.96063 0z" fill-rule="evenodd"/><path fill="#000000" d="m758.2435 297.653l0 -1.015625q-0.8125 1.171875 -2.1875 1.171875q-0.609375 0 -1.140625 -0.234375q-0.53125 -0.234375 -0.796875 -0.578125q-0.25 -0.359375 -0.359375 -0.875q-0.0625 -0.34375 -0.0625 -1.09375l0 -4.28125l1.171875 0l0 3.828125q0 0.921875 0.0625 1.234375q0.109375 0.46875 0.46875 0.734375q0.359375 0.25 0.890625 0.25q0.515625 0 0.984375 -0.265625q0.46875 -0.265625 0.65625 -0.734375q0.1875 -0.46875 0.1875 -1.34375l0 -3.703125l1.171875 0l0 6.90625l-1.046875 0zm2.8812256 2.65625l0 -9.5625l1.078125 0l0 0.890625q0.375 -0.53125 0.84375 -0.78125q0.484375 -0.265625 1.15625 -0.265625q0.875 0 1.546875 0.453125q0.6875 0.453125 1.03125 1.28125q0.34375 0.828125 0.34375 1.828125q0 1.046875 -0.375 1.90625q-0.375 0.84375 -1.109375 1.296875q-0.71875 0.453125 -1.53125 0.453125q-0.578125 0 -1.046875 -0.25q-0.46875 -0.25 -0.765625 -0.625l0 3.375l-1.171875 0zm1.0625 -6.078125q0 1.34375 0.53125 1.984375q0.546875 0.625 1.3125 0.625q0.78125 0 1.34375 -0.65625q0.5625 -0.65625 0.5625 -2.046875q0 -1.3125 -0.546875 -1.96875q-0.546875 -0.671875 -1.296875 -0.671875q-0.75 0 -1.328125 0.703125q-0.578125 0.703125 -0.578125 2.03125zm10.834351 3.421875l0 -0.875q-0.65625 1.03125 -1.9375 1.03125q-0.8125 0 -1.515625 -0.453125q-0.6875 -0.453125 -1.078125 -1.265625q-0.375 -0.828125 -0.375 -1.890625q0 -1.03125 0.34375 -1.875q0.34375 -0.84375 1.03125 -1.28125q0.703125 -0.453125 1.546875 -0.453125q0.625 0 1.109375 0.265625q0.5 0.25 0.796875 0.671875l0 -3.421875l1.171875 0l0 9.546875l-1.09375 0zm-3.703125 -3.453125q0 1.328125 0.5625 1.984375q0.5625 0.65625 1.328125 0.65625q0.765625 0 1.296875 -0.625q0.53125 -0.625 0.53125 -1.90625q0 -1.421875 -0.546875 -2.078125q-0.546875 -0.671875 -1.34375 -0.671875q-0.78125 0 -1.3125 0.640625q-0.515625 0.625 -0.515625 2.0zm11.146851 2.59375q-0.65625 0.5625 -1.265625 0.796875q-0.59375 0.21875 -1.28125 0.21875q-1.140625 0 -1.75 -0.546875q-0.609375 -0.5625 -0.609375 -1.4375q0 -0.5 0.21875 -0.921875q0.234375 -0.421875 0.609375 -0.671875q0.375 -0.25 0.84375 -0.390625q0.34375 -0.078125 1.046875 -0.171875q1.421875 -0.171875 2.09375 -0.40625q0 -0.234375 0 -0.296875q0 -0.71875 -0.328125 -1.015625q-0.453125 -0.390625 -1.34375 -0.390625q-0.8125 0 -1.21875 0.296875q-0.390625 0.28125 -0.578125 1.015625l-1.140625 -0.15625q0.15625 -0.734375 0.515625 -1.1875q0.359375 -0.453125 1.03125 -0.6875q0.671875 -0.25 1.5625 -0.25q0.890625 0 1.4375 0.203125q0.5625 0.203125 0.8125 0.53125q0.265625 0.3125 0.375 0.796875q0.046875 0.296875 0.046875 1.078125l0 1.5625q0 1.625 0.078125 2.0625q0.078125 0.4375 0.296875 0.828125l-1.21875 0q-0.1875 -0.359375 -0.234375 -0.859375zm-0.09375 -2.609375q-0.640625 0.265625 -1.921875 0.4375q-0.71875 0.109375 -1.015625 0.25q-0.296875 0.125 -0.46875 0.375q-0.15625 0.25 -0.15625 0.546875q0 0.46875 0.34375 0.78125q0.359375 0.3125 1.046875 0.3125q0.671875 0 1.203125 -0.296875q0.53125 -0.296875 0.78125 -0.8125q0.1875 -0.390625 0.1875 -1.171875l0 -0.421875zm5.5531006 2.421875l0.171875 1.03125q-0.5 0.109375 -0.890625 0.109375q-0.640625 0 -1.0 -0.203125q-0.34375 -0.203125 -0.484375 -0.53125q-0.140625 -0.328125 -0.140625 -1.390625l0 -3.96875l-0.859375 0l0 -0.90625l0.859375 0l0 -1.71875l1.171875 -0.703125l0 2.421875l1.171875 0l0 0.90625l-1.171875 0l0 4.046875q0 0.5 0.046875 0.640625q0.0625 0.140625 0.203125 0.234375q0.140625 0.078125 0.40625 0.078125q0.203125 0 0.515625 -0.046875zm5.874878 -1.171875l1.203125 0.140625q-0.28125 1.0625 -1.0625 1.65625q-0.765625 0.578125 -1.96875 0.578125q-1.515625 0 -2.40625 -0.9375q-0.890625 -0.9375 -0.890625 -2.609375q0 -1.75 0.890625 -2.703125q0.90625 -0.96875 2.34375 -0.96875q1.390625 0 2.265625 0.9375q0.875 0.9375 0.875 2.65625q0 0.109375 0 0.3125l-5.15625 0q0.0625 1.140625 0.640625 1.75q0.578125 0.59375 1.4375 0.59375q0.65625 0 1.109375 -0.328125q0.453125 -0.34375 0.71875 -1.078125zm-3.84375 -1.90625l3.859375 0q-0.078125 -0.859375 -0.4375 -1.296875q-0.5625 -0.6875 -1.453125 -0.6875q-0.8125 0 -1.359375 0.546875q-0.546875 0.53125 -0.609375 1.4375zm5.4437256 6.78125l0 -0.859375l7.765625 0l0 0.859375l-7.765625 0zm8.474976 -2.65625l0 -9.546875l1.171875 0l0 9.546875l-1.171875 0zm2.9923096 -8.1875l0 -1.359375l1.171875 0l0 1.359375l-1.171875 0zm0 8.1875l0 -6.90625l1.171875 0l0 6.90625l-1.171875 0zm2.9454956 0l0 -6.90625l1.0625 0l0 0.984375q0.75 -1.140625 2.1875 -1.140625q0.625 0 1.15625 0.21875q0.53125 0.21875 0.78125 0.59375q0.265625 0.359375 0.375 0.859375q0.0625 0.328125 0.0625 1.140625l0 4.25l-1.171875 0l0 -4.203125q0 -0.71875 -0.140625 -1.0625q-0.140625 -0.359375 -0.484375 -0.5625q-0.34375 -0.21875 -0.8125 -0.21875q-0.75 0 -1.296875 0.46875q-0.546875 0.46875 -0.546875 1.796875l0 3.78125l-1.171875 0zm7.4281006 0l0 -9.546875l1.171875 0l0 5.453125l2.765625 -2.8125l1.515625 0l-2.640625 2.5625l2.90625 4.34375l-1.4375 0l-2.28125 -3.53125l-0.828125 0.796875l0 2.734375l-1.171875 0zm6.9765625 0l0 -1.328125l1.34375 0l0 1.328125l-1.34375 0zm3.374817 0l0 -9.546875l1.171875 0l0 3.421875q0.828125 -0.9375 2.078125 -0.9375q0.765625 0 1.328125 0.296875q0.5625 0.296875 0.8125 0.84375q0.25 0.53125 0.25 1.546875l0 4.375l-1.171875 0l0 -4.375q0 -0.890625 -0.390625 -1.28125q-0.375 -0.40625 -1.078125 -0.40625q-0.515625 0 -0.984375 0.28125q-0.453125 0.265625 -0.65625 0.734375q-0.1875 0.453125 -0.1875 1.265625l0 3.78125l-1.171875 0zm9.974976 -1.046875l0.171875 1.03125q-0.5 0.109375 -0.890625 0.109375q-0.640625 0 -1.0 -0.203125q-0.34375 -0.203125 -0.484375 -0.53125q-0.140625 -0.328125 -0.140625 -1.390625l0 -3.96875l-0.859375 0l0 -0.90625l0.859375 0l0 -1.71875l1.171875 -0.703125l0 2.421875l1.171875 0l0 0.90625l-1.171875 0l0 4.046875q0 0.5 0.046875 0.640625q0.0625 0.140625 0.203125 0.234375q0.140625 0.078125 0.40625 0.078125q0.203125 0 0.515625 -0.046875zm1.1405029 1.046875l0 -6.90625l1.046875 0l0 0.96875q0.328125 -0.515625 0.859375 -0.8125q0.546875 -0.3125 1.234375 -0.3125q0.78125 0 1.265625 0.3125q0.484375 0.3125 0.6875 0.890625q0.828125 -1.203125 2.140625 -1.203125q1.03125 0 1.578125 0.578125q0.5625 0.5625 0.5625 1.734375l0 4.75l-1.171875 0l0 -4.359375q0 -0.703125 -0.125 -1.0q-0.109375 -0.3125 -0.40625 -0.5q-0.296875 -0.1875 -0.703125 -0.1875q-0.71875 0 -1.203125 0.484375q-0.484375 0.484375 -0.484375 1.546875l0 4.015625l-1.171875 0l0 -4.484375q0 -0.78125 -0.296875 -1.171875q-0.28125 -0.390625 -0.921875 -0.390625q-0.5 0 -0.921875 0.265625q-0.421875 0.25 -0.609375 0.75q-0.1875 0.5 -0.1875 1.453125l0 3.578125l-1.171875 0zm11.086792 0l0 -9.546875l1.171875 0l0 9.546875l-1.171875 0z" fill-rule="nonzero"/><path fill="#000000" fill-opacity="0.0" d="m231.85301 149.62993l0 24.440933" fill-rule="evenodd"/><path stroke="#b4a7d6" stroke-width="2.0" stroke-linejoin="round" stroke-linecap="butt" d="m231.85301 149.62993l0 24.440933" fill-rule="evenodd"/><path fill="#000000" fill-opacity="0.0" d="m711.853 149.62993l0 24.440933" fill-rule="evenodd"/><path stroke="#b4a7d6" stroke-width="2.0" stroke-linejoin="round" stroke-linecap="butt" d="m711.853 149.62993l0 24.440933" fill-rule="evenodd"/><path fill="#000000" fill-opacity="0.0" d="m447.85303 61.62992l-0.4409485 29.480316" fill-rule="evenodd"/><path stroke="#76a5af" stroke-width="2.0" stroke-linejoin="round" stroke-linecap="butt" d="m447.85303 61.62992l-0.4409485 29.480316" fill-rule="evenodd"/></g></svg>