<?xml version="1.0" encoding="utf-8"?>
<!-- Generator: Adobe Illustrator 24.0.3, SVG Export Plug-In . SVG Version: 6.00 Build 0)  -->
<svg version="1.1" xmlns="http://www.w3.org/2000/svg" xmlns:xlink="http://www.w3.org/1999/xlink" x="0px" y="0px"
	 viewBox="0 0 3395.5 903.2" style="enable-background:new 0 0 3395.5 903.2;" xml:space="preserve">
<style type="text/css">
	.st0{fill:#444545;}
	.st1{fill:#5C88C6;}
	.st2{opacity:0.85;fill:#5C88C6;}
	.st3{opacity:0.7;fill:#5C88C6;}
</style>
<g id="Text_1_">
	<path class="st0" d="M1452.8,255.5v-46c-22.6-16.8-58.8-27.2-94.7-27.2c-39.7,0-76.3,13.6-103.2,38.2
		c-28.7,26.3-43.8,62.5-43.8,104.6s15.2,78.3,43.8,104.6c26.9,24.7,63.5,38.2,103.2,38.2c35.9,0,72.1-10.4,94.7-27.2v-46
		c-25.6,21.2-55.4,31.9-88.7,31.9c-58.5,0-97.8-40.8-97.8-101.5c0-30.6,9.6-56.4,27.8-74.6c17.6-17.6,41.8-26.9,70-26.9
		C1397.4,223.6,1427.2,234.3,1452.8,255.5z"/>
	<path class="st0" d="M1707.9,393.4l28.2,68.5h52.1l-116.3-273.6h-41.3l-116.3,273.6h50.2l28.2-68.5H1707.9z M1650.5,249.9
		l43.7,108.2h-87.8L1650.5,249.9z"/>
	<path class="st0" d="M2009.7,447.4c19.8-14.7,30.3-36.7,30.3-63.6c0-46.9-27.2-73.7-91-89.7c-34.9-8.5-49.2-20.1-49.2-39.9
		c0-21.2,17-33.9,45.5-33.9c25.6,0,52.8,11.6,70.6,22.9l10.8-35.5c-21.6-16.3-51.8-26-81-26c-28.3,0-52.2,7.5-69,21.6
		c-16.2,13.7-24.8,32.5-24.8,54.6c0,42.2,26.9,70.2,79.9,83.2c44.7,11,59.8,23.1,59.8,48.2c0,24.2-20.5,40.4-51,40.4
		c-37.2,0-66.2-19-84.6-35.8l-11.7,40.1c15,12.9,46.7,33.4,96.3,33.4C1967.8,467.4,1992.3,460.3,2009.7,447.4z"/>
	<path class="st0" d="M2351.9,255.5v-46c-22.6-16.8-58.8-27.2-94.7-27.2c-39.7,0-76.3,13.6-103.2,38.2
		c-28.7,26.3-43.8,62.5-43.8,104.6s15.2,78.3,43.8,104.6c26.9,24.7,63.5,38.2,103.2,38.2c35.9,0,72.1-10.4,94.7-27.2v-46
		c-25.6,21.2-55.4,31.9-88.7,31.9c-58.5,0-97.8-40.8-97.8-101.5c0-30.6,9.6-56.4,27.8-74.6c17.6-17.6,41.8-26.9,70-26.9
		C2296.4,223.6,2326.3,234.3,2351.9,255.5z"/>
	<path class="st0" d="M2606.9,393.4l28.2,68.5h52.1L2571,188.2h-41.3l-116.3,273.6h50.2l28.2-68.5H2606.9z M2549.6,249.9l43.7,108.2
		h-87.8L2549.6,249.9z"/>
	<path class="st0" d="M2974.6,228.4c-27.1-26.7-67.2-40.2-119.1-40.2h-95.6v273.6h95.6c51.9,0,92-13.5,119.1-40.2
		c24-23.6,36.7-57,36.7-96.6S2998.6,252,2974.6,228.4z M2933.9,394c-17.3,17.6-44.7,26.5-81.2,26.5h-40.4V229.6h40.4
		c36.6,0,63.9,8.9,81.2,26.5c15.6,15.8,23.5,39,23.5,69C2957.4,355,2949.5,378.2,2933.9,394z"/>
	<polygon class="st0" points="3272.1,228.2 3272.1,188.2 3095.1,188.2 3095.1,461.9 3272.1,461.9 3272.1,421.9 3147.6,421.9 
		3147.6,337.4 3248.9,337.4 3248.9,297.4 3147.6,297.4 3147.6,228.2 	"/>
	<rect x="1266.6" y="570.9" class="st1" width="32.5" height="224.5"/>
	<polygon class="st1" points="1557.9,570.9 1557.9,733.1 1428.3,570.9 1409.1,570.9 1409.1,795.4 1439,795.4 1439,633.1 
		1568.6,795.4 1587.8,795.4 1587.8,570.9 	"/>
	<path class="st1" d="M1816.8,688.4c-11.3-11.2-28.7-19.8-53.2-26.3c-20.3-5.4-43.6-14.5-43.6-36.9c0-20.1,15.7-32.1,42.1-32.1
		c19.2,0,39.8,10,52.6,19.3l1.7,1.3l7.5-27l-0.8-0.6c-11.2-9.2-34-19.9-61.1-19.9c-21.9,0-40.5,6-53.6,17.4
		c-12.3,10.6-19.1,25.4-19.1,41.7c0,16,5.2,29.8,15.6,40.8c10.5,11.2,26.4,19.7,47.2,25.2c43.1,11.6,51.3,24.6,51.3,44.7
		c0,21.9-18.5,37.3-45,37.3c-31.9,0-53.5-16.2-66.1-29.8l-1.9-2.1l-7.5,30.8l0.6,0.6c7,7.2,17.1,13.8,28.4,18.5
		c14.2,5.9,29.8,8.9,46.5,8.9c20.1,0,38.6-6,52.3-16.8c15.3-12.1,23.4-29.4,23.4-50C1834.1,714.6,1828.4,699.9,1816.8,688.4z"/>
	<polygon class="st1" points="1901.9,570.9 1901.9,598.6 1980.6,598.6 1980.6,795.4 2013.1,795.4 2013.1,598.6 2091.7,598.6 
		2091.7,570.9 	"/>
	<rect x="2178.1" y="570.9" class="st1" width="32.5" height="224.5"/>
	<polygon class="st1" points="2296.6,570.9 2296.6,598.6 2375.2,598.6 2375.2,795.4 2407.7,795.4 2407.7,598.6 2486.4,598.6 
		2486.4,570.9 	"/>
	<path class="st1" d="M2735.9,570.9V692c0,52.9-22.5,80.8-65,80.8c-42.5,0-65-27.9-65-80.8V570.9h-33.3v120.7
		c0,36.5,9.1,64.5,26.9,83.4c16.8,17.7,40.5,26.6,70.5,26.6s53.8-9,70.5-26.6c17.9-18.9,26.9-46.9,26.9-83.4V570.9H2735.9z"/>
	<polygon class="st1" points="2853.6,570.9 2853.6,598.6 2932.3,598.6 2932.3,795.4 2964.8,795.4 2964.8,598.6 3043.4,598.6 
		3043.4,570.9 	"/>
	<polygon class="st1" points="3266.8,598.6 3266.8,570.9 3129.8,570.9 3129.8,795.4 3266.8,795.4 3266.8,767.6 3162.3,767.6 
		3162.3,690.9 3248.3,690.9 3248.3,663.2 3162.3,663.2 3162.3,598.6 	"/>
	<rect x="1266" y="570.9" class="st1" width="32.5" height="224.5"/>
	<polygon class="st1" points="1557.3,570.9 1557.3,733.1 1427.7,570.9 1408.5,570.9 1408.5,795.4 1438.4,795.4 1438.4,633.1 
		1568,795.4 1587.2,795.4 1587.2,570.9 	"/>
	<path class="st1" d="M1816.2,688.4c-11.3-11.2-28.7-19.8-53.2-26.3c-20.3-5.4-43.6-14.5-43.6-36.9c0-20.1,15.7-32.1,42.1-32.1
		c19.2,0,39.8,10,52.6,19.3l1.7,1.3l7.5-27l-0.8-0.6c-11.2-9.2-34-19.9-61.1-19.9c-21.9,0-40.5,6-53.6,17.4
		c-12.3,10.6-19.1,25.4-19.1,41.7c0,16,5.2,29.8,15.6,40.8c10.5,11.2,26.4,19.7,47.2,25.2c43.1,11.6,51.3,24.6,51.3,44.7
		c0,21.9-18.5,37.3-45,37.3c-31.9,0-53.5-16.2-66.1-29.8l-1.9-2.1l-7.5,30.8l0.6,0.6c7,7.2,17.1,13.8,28.4,18.5
		c14.2,5.9,29.8,8.9,46.5,8.9c20.1,0,38.6-6,52.3-16.8c15.3-12.1,23.4-29.4,23.4-50C1833.5,714.6,1827.8,699.9,1816.2,688.4z"/>
	<polygon class="st1" points="1901.3,570.9 1901.3,598.6 1980,598.6 1980,795.4 2012.5,795.4 2012.5,598.6 2091.1,598.6 
		2091.1,570.9 	"/>
	<rect x="2177.5" y="570.9" class="st1" width="32.5" height="224.5"/>
	<polygon class="st1" points="2296,570.9 2296,598.6 2374.6,598.6 2374.6,795.4 2407.1,795.4 2407.1,598.6 2485.8,598.6 
		2485.8,570.9 	"/>
	<path class="st1" d="M2735.3,570.9V692c0,52.9-22.5,80.8-65,80.8c-42.5,0-65-27.9-65-80.8V570.9h-33.3v120.7
		c0,36.5,9.1,64.5,26.9,83.4c16.8,17.7,40.5,26.6,70.5,26.6s53.8-9,70.5-26.6c17.9-18.9,26.9-46.9,26.9-83.4V570.9H2735.3z"/>
	<polygon class="st1" points="2853,570.9 2853,598.6 2931.7,598.6 2931.7,795.4 2964.2,795.4 2964.2,598.6 3042.8,598.6 
		3042.8,570.9 	"/>
	<polygon class="st1" points="3266.2,598.6 3266.2,570.9 3129.2,570.9 3129.2,795.4 3266.2,795.4 3266.2,767.6 3161.7,767.6 
		3161.7,690.9 3247.7,690.9 3247.7,663.2 3161.7,663.2 3161.7,598.6 	"/>
</g>
<g id="Ben_Blocks">
	<rect x="907.5" y="96.7" class="st1" width="100" height="700"/>
	<rect x="653.6" y="113.4" transform="matrix(0.89 0.456 -0.456 0.89 288.7021 -269.8765)" class="st2" width="100" height="700"/>
	
		<rect x="368.1" y="178.1" transform="matrix(0.6609 0.7505 -0.7505 0.6609 538.1188 -134.6806)" class="st3" width="100" height="700"/>
</g>
</svg>
