<svg height='100px' width='100px'  fill="#777777" xmlns:x="http://ns.adobe.com/Extensibility/1.0/" xmlns:i="http://ns.adobe.com/AdobeIllustrator/10.0/" xmlns:graph="http://ns.adobe.com/Graphs/1.0/" xmlns="http://www.w3.org/2000/svg" xmlns:xlink="http://www.w3.org/1999/xlink" version="1.1" x="0px" y="0px" viewBox="0 0 100 100" enable-background="new 0 0 100 100" xml:space="preserve"><g><g i:extraneous="self"><path d="M50,5C24.9,5.2,4.8,25.5,5,50.3C5.2,74.9,25.3,95,50,95c0,0,0.3,0,0.3,0c12-0.1,23.3-4.8,31.7-13.4    c8.4-8.6,13.1-19.9,13-31.9C94.8,25.1,74.7,5,50,5z M72.4,61c0,0.6-0.5,1.1-1.1,1.1h-20c-0.3,0-0.5,0.1-0.7,0.3L39.4,72.7    c-0.7,0.6-1.8,0.1-1.8-0.8v-8.8c0-0.6-0.5-1.1-1.1-1.1h-7.5C28.5,62,28,61.6,28,61V35.5c0-0.6,0.5-1.1,1.1-1.1h42.3    c0.6,0,1.1,0.5,1.1,1.1V61z"></path></g></g></svg>